<?xml version="1.0" encoding="UTF-8"?>
<!DOCTYPE svg PUBLIC "-//W3C//DTD SVG 1.1//EN" "http://www.w3.org/Graphics/SVG/1.1/DTD/svg11.dtd">
<svg version="1.2" width="242.96mm" height="297.06mm" viewBox="-4951 -1 24296 29706" preserveAspectRatio="xMidYMid" fill-rule="evenodd" stroke-width="28.222" stroke-linejoin="round" xmlns="http://www.w3.org/2000/svg" xmlns:ooo="http://xml.openoffice.org/svg/export" xmlns:xlink="http://www.w3.org/1999/xlink" xmlns:presentation="http://sun.com/xmlns/staroffice/presentation" xmlns:smil="http://www.w3.org/2001/SMIL20/" xmlns:anim="urn:oasis:names:tc:opendocument:xmlns:animation:1.0" xml:space="preserve">
 <defs class="EmbeddedBulletChars">
  <g id="bullet-char-template-57356" transform="scale(0.00048828125,-0.00048828125)">
   <path d="M 580,1141 L 1163,571 580,0 -4,571 580,1141 Z"/>
  </g>
  <g id="bullet-char-template-57354" transform="scale(0.00048828125,-0.00048828125)">
   <path d="M 8,1128 L 1137,1128 1137,0 8,0 8,1128 Z"/>
  </g>
  <g id="bullet-char-template-10146" transform="scale(0.00048828125,-0.00048828125)">
   <path d="M 174,0 L 602,739 174,1481 1456,739 174,0 Z M 1358,739 L 309,1346 659,739 1358,739 Z"/>
  </g>
  <g id="bullet-char-template-10132" transform="scale(0.00048828125,-0.00048828125)">
   <path d="M 2015,739 L 1276,0 717,0 1260,543 174,543 174,936 1260,936 717,1481 1274,1481 2015,739 Z"/>
  </g>
  <g id="bullet-char-template-10007" transform="scale(0.00048828125,-0.00048828125)">
   <path d="M 0,-2 C -7,14 -16,27 -25,37 L 356,567 C 262,823 215,952 215,954 215,979 228,992 255,992 264,992 276,990 289,987 310,991 331,999 354,1012 L 381,999 492,748 772,1049 836,1024 860,1049 C 881,1039 901,1025 922,1006 886,937 835,863 770,784 769,783 710,716 594,584 L 774,223 C 774,196 753,168 711,139 L 727,119 C 717,90 699,76 672,76 641,76 570,178 457,381 L 164,-76 C 142,-110 111,-127 72,-127 30,-127 9,-110 8,-76 1,-67 -2,-52 -2,-32 -2,-23 -1,-13 0,-2 Z"/>
  </g>
  <g id="bullet-char-template-10004" transform="scale(0.00048828125,-0.00048828125)">
   <path d="M 285,-33 C 182,-33 111,30 74,156 52,228 41,333 41,471 41,549 55,616 82,672 116,743 169,778 240,778 293,778 328,747 346,684 L 369,508 C 377,444 397,411 428,410 L 1163,1116 C 1174,1127 1196,1133 1229,1133 1271,1133 1292,1118 1292,1087 L 1292,965 C 1292,929 1282,901 1262,881 L 442,47 C 390,-6 338,-33 285,-33 Z"/>
  </g>
  <g id="bullet-char-template-9679" transform="scale(0.00048828125,-0.00048828125)">
   <path d="M 813,0 C 632,0 489,54 383,161 276,268 223,411 223,592 223,773 276,916 383,1023 489,1130 632,1184 813,1184 992,1184 1136,1130 1245,1023 1353,916 1407,772 1407,592 1407,412 1353,268 1245,161 1136,54 992,0 813,0 Z"/>
  </g>
  <g id="bullet-char-template-8226" transform="scale(0.00048828125,-0.00048828125)">
   <path d="M 346,457 C 273,457 209,483 155,535 101,586 74,649 74,723 74,796 101,859 155,911 209,963 273,989 346,989 419,989 480,963 531,910 582,859 608,796 608,723 608,648 583,586 532,535 482,483 420,457 346,457 Z"/>
  </g>
  <g id="bullet-char-template-8211" transform="scale(0.00048828125,-0.00048828125)">
   <path d="M -4,459 L 1135,459 1135,606 -4,606 -4,459 Z"/>
  </g>
  <g id="bullet-char-template-61548" transform="scale(0.00048828125,-0.00048828125)">
   <path d="M 173,740 C 173,903 231,1043 346,1159 462,1274 601,1332 765,1332 928,1332 1067,1274 1183,1159 1299,1043 1357,903 1357,740 1357,577 1299,437 1183,322 1067,206 928,148 765,148 601,148 462,206 346,322 231,437 173,577 173,740 Z"/>
  </g>
 </defs>
 <g class="Page">
  <g class="com.sun.star.drawing.PolyPolygonShape">
   <g id="id3">
    <rect class="BoundingBox" stroke="none" fill="none" x="-4951" y="-1" width="24296" height="29706"/>
    <path fill="rgb(24,57,64)" fill-opacity="0.078" stroke="rgb(255,255,255)" stroke-opacity="0.078" d="M -4951,13902 L -4951,13665 -4732,13333 -4951,13191 -4951,12811 -4891,12755 -4834,12698 -4780,12638 -4728,12575 -4681,12508 -4636,12437 -4596,12362 -4560,12281 -4951,12242 -4951,12004 -4471,11963 -4482,11743 -4504,11527 -4534,11314 -4572,11104 -4663,10691 -4764,10284 -4951,10249 -4951,9822 -4489,9800 -4127,8224 -4951,8019 -4951,7924 -4098,8102 -3730,6491 -4951,6405 -4951,6215 -4716,6248 -4422,6277 -3756,6315 -3436,6323 -3160,6321 -2953,6308 -2883,6298 -2858,6291 -2840,6284 -2942,6213 -2990,6180 -3038,6150 -3789,5703 -4951,5029 -4951,4887 -2794,6166 -2540,5821 -3094,4988 -3107,4970 -3123,4954 -3140,4938 -3158,4923 -3178,4909 -3198,4896 -3218,4885 -3239,4875 -4951,4128 -4951,4033 -4838,4062 -4782,4079 -4755,4088 -4728,4099 -3339,4705 -3270,4736 -3204,4771 -3143,4810 -3087,4853 -3034,4900 -2985,4953 -2940,5011 -2898,5075 -2794,5243 -2684,5408 -2463,5731 -2424,5711 -2388,5690 -2355,5669 -2324,5645 -2296,5621 -2270,5596 -2246,5569 -2225,5542 -2205,5513 -2188,5483 -2172,5452 -2159,5420 -2146,5386 -2136,5352 -2119,5279 -2081,5094 -2037,4909 -1944,4542 -1922,4464 -1899,4387 -1851,4238 -1504,4238 -1092,4880 -956,4794 -817,4698 -681,4594 -552,4488 -436,4383 -337,4285 -261,4196 -233,4157 -212,4122 -319,4104 -372,4096 -424,4090 -3517,3842 -3554,3838 -3591,3831 -3628,3822 -3665,3811 -3701,3798 -3737,3783 -3771,3767 -3804,3749 -4951,3084 -4951,2989 -4513,3212 -4074,3459 -3223,2142 -3833,1658 -4048,1772 -4951,1518 -4951,1233 -4064,1463 -3525,127 -3717,-1 -2484,-1 -2280,105 -2199,-1 -2104,-1 -2135,163 -1555,411 -1392,-1 -1297,-1 -1438,464 -230,1024 126,-1 221,-1 -121,1084 1475,1816 1466,1624 1360,-1 1644,-1 1644,318 2945,680 3054,377 2773,280 1977,-1 2309,-1 3981,558 3827,-1 4112,-1 4482,1277 5367,1205 5203,-1 5346,-1 5466,1199 6743,1097 6713,774 6627,-1 6722,-1 6866,1097 7347,1041 7196,-1 7623,-1 7634,27 7645,55 7650,69 7655,83 7658,97 7661,111 7916,1817 8037,2629 8866,2878 8912,2834 8885,2768 8859,2700 8845,2667 8829,2635 8812,2605 8802,2591 8792,2577 8766,2542 8742,2507 8720,2471 8701,2435 8684,2398 8669,2361 8656,2324 8645,2286 8629,2208 8620,2127 8617,2045 8619,1959 8681,328 8686,246 8695,164 8715,-1 8809,-1 8807,20 8807,40 8809,57 8814,72 8820,86 8828,99 8837,109 8848,119 8859,128 8872,135 8886,142 8901,149 8962,171 9350,308 9289,1724 9927,1882 9929,1504 9929,1329 9923,1159 9920,1116 9916,1072 9910,1028 9902,984 9892,941 9880,899 9865,858 9848,818 9747,612 9641,407 9426,-1 9569,-1 10296,1484 10335,1562 10379,1634 10426,1702 10476,1765 10530,1824 10588,1879 10647,1931 10710,1979 10843,2068 10983,2149 11281,2297 11331,2235 11384,2176 11488,2059 11536,2001 11577,1942 11595,1912 11611,1881 11625,1849 11636,1817 11748,1414 11848,1010 12036,206 11941,-1 12369,-1 12324,323 12899,999 13027,1177 13085,1271 13136,1368 13182,1469 13220,1575 13250,1686 13272,1803 13723,1735 13579,1423 12891,-1 13223,-1 13650,942 14075,733 14274,634 14467,532 14544,491 14621,455 14699,425 14739,413 14778,403 14818,395 14858,390 14899,388 14940,389 14982,393 15024,400 15067,411 15111,426 15112,426 15113,427 15114,427 15115,427 15116,427 15117,426 15119,426 15121,425 15124,423 15129,420 15142,412 15149,407 15156,403 14979,-1 15074,-1 15315,420 16070,-1 16308,-1 15242,580 14820,480 13713,1037 13878,1379 14054,1718 15009,1790 15020,1790 15031,1790 15054,1788 15077,1783 15100,1777 15122,1769 15144,1759 15165,1748 15184,1736 17731,-1 17921,-1 17027,619 15403,1723 15399,1726 15396,1729 15392,1732 15389,1736 15382,1743 15376,1752 15362,1771 15346,1793 15562,1865 15908,2334 16208,2152 15978,1606 16080,1534 16129,1501 16177,1469 17702,516 18490,-1 18680,-1 18593,75 18548,111 18525,128 18501,144 16432,1435 16107,1646 16316,2088 16526,1970 19112,438 19140,423 19168,408 19227,382 19344,332 19344,664 19084,800 18954,869 18827,941 15963,2637 15874,2648 15788,2663 15623,2705 15466,2758 15315,2819 15022,2954 14874,3020 14723,3082 15247,4139 15377,4073 15432,4044 15484,4015 18719,2181 18874,2095 19030,2013 19344,1850 19344,1945 15301,4247 15593,4836 15709,4781 15759,4756 15806,4732 18013,3537 18256,3400 18489,3249 18712,3086 18928,2911 19028,2831 19133,2756 19344,2609 19344,2704 19083,2942 18806,3158 18517,3356 18218,3539 16977,4224 18198,6349 18857,5872 19344,5551 19344,5883 17400,7288 18013,8291 19344,7449 19344,7592 18701,7983 17442,8806 17537,9363 17609,9353 17679,9338 17816,9296 18082,9198 18147,9177 18212,9160 18277,9148 18343,9143 18409,9144 18475,9155 18543,9174 18611,9205 19344,8683 19344,9015 19027,9463 19344,9679 19344,9917 18914,9610 18645,10130 18401,10658 17920,11721 18327,12057 19344,10866 19344,11055 18936,11498 19246,12298 19249,12305 19253,12311 19257,12317 19263,12323 19268,12328 19274,12334 19288,12344 19317,12364 19331,12374 19344,12384 19344,12811 19207,12572 18808,12777 18702,13071 18183,13203 18199,13264 19344,13048 19344,13333 18219,13566 18720,15079 19344,14187 19344,14377 18839,15120 18875,15143 18910,15161 18944,15174 18978,15182 19011,15187 19043,15188 19075,15186 19106,15183 19167,15170 19227,15156 19285,15143 19315,15139 19344,15137 19344,15232 19106,15313 19137,15612 19344,15612 19344,15707 19324,15714 19304,15719 19260,15728 19217,15738 19196,15744 19176,15752 19157,15762 19140,15774 19132,15781 19125,15789 19118,15798 19112,15807 19106,15818 19101,15830 19093,15856 19088,15888 19087,15924 19344,16039 19344,16276 18976,16072 18589,16690 19141,17032 19344,16750 19344,16988 19320,17006 19298,17023 19289,17032 19281,17041 19275,17050 19273,17055 19271,17059 19270,17063 19269,17068 19269,17072 19270,17077 19272,17081 19274,17086 19277,17090 19280,17095 19285,17099 19291,17103 19304,17112 19322,17121 19344,17130 19344,17272 19175,17225 18331,18710 18366,18769 19344,18696 19344,18981 18142,19062 18133,19082 18118,19110 18077,19190 18937,19747 19037,19807 19139,19865 19344,19977 19344,20119 18801,19808 18595,20119 19344,20641 19344,20736 18521,20225 18180,20750 19054,21345 19344,20974 19344,21163 18849,21835 19344,22017 19344,22302 18678,22102 18139,23040 19164,23634 19344,23441 19344,23631 19344,23726 19344,23868 19210,23820 18609,24860 19344,25386 19344,25908 19226,26017 19197,26045 19170,26073 19143,26102 19119,26133 18198,27407 18537,27680 18904,27245 19344,26762 19344,26905 18613,27755 18977,28066 19344,27759 19344,28376 18895,28754 19344,29088 19344,29230 19071,29067 18633,29704 18490,29704 19001,28970 18807,28841 17921,29704 17209,29704 17470,29474 16224,28285 15758,28521 17114,29704 16924,29704 16842,29621 16801,29580 16758,29540 15888,28771 15859,28743 15832,28714 15781,28654 15688,28536 15708,28496 15730,28460 15755,28428 15782,28400 15810,28374 15840,28352 15872,28331 15905,28313 16042,28245 16111,28209 16145,28189 16178,28167 15995,27282 13631,28047 13200,27679 12541,27881 12630,28246 12675,28418 12700,28503 12728,28586 12835,28867 12947,29147 13176,29704 12891,29704 12609,29086 11644,29493 10572,28474 9759,29208 9659,29297 9556,29373 9503,29405 9449,29435 9394,29460 9337,29482 9280,29500 9221,29513 9161,29523 9100,29527 9037,29528 8972,29523 8906,29513 8838,29499 8836,29499 8833,29498 8830,29499 8828,29499 8825,29499 8822,29500 8816,29502 8788,29512 8715,29704 8288,29704 8310,29435 7860,29372 7860,29704 7766,29704 7697,29462 7322,29415 7134,29394 6947,29379 6910,29379 6873,29382 6837,29388 6803,29398 6770,29411 6738,29427 6708,29445 6680,29466 6653,29489 6629,29515 6607,29542 6587,29572 6569,29603 6554,29635 6542,29669 6532,29704 6390,29704 6200,29505 6010,29704 5773,29704 6070,29360 5633,28901 4919,29704 4776,29704 5026,29422 5269,29150 5389,29013 5506,28873 5514,28862 5522,28850 5529,28837 5535,28824 5547,28797 5557,28767 5575,28704 5586,28671 5597,28637 5369,28552 4835,29135 4349,29704 3922,29704 2205,28890 1739,29704 1644,29704 2141,28759 2717,29003 3221,28349 3721,27696 3216,27325 3120,27407 3269,27624 3169,27786 3066,27941 2962,28084 2860,28212 2762,28321 2716,28367 2672,28406 2630,28439 2591,28465 2555,28483 2538,28489 2522,28493 3143,27636 3015,27514 2541,27926 2305,28125 2063,28315 1887,28458 1727,28613 1580,28778 1445,28952 1320,29133 1202,29319 980,29704 648,29704 1038,29030 1115,28907 1198,28788 1285,28673 1378,28563 1475,28457 1578,28355 1685,28257 1798,28163 3008,27136 3036,27111 3063,27084 3090,27056 3116,27028 3165,26969 3210,26907 4069,25659 4097,25616 4123,25574 4171,25492 2615,24645 752,27120 782,27152 814,27182 847,27209 881,27234 951,27279 1021,27321 1090,27363 1155,27408 1186,27432 1214,27458 1241,27487 1265,27518 1226,27574 670,27234 -1203,29704 -1867,29704 -1896,29669 -1927,29636 -1959,29607 -1993,29579 -2064,29530 -2139,29486 -2295,29404 -2374,29362 -2451,29316 -2721,29704 -2816,29704 -2566,29242 -3693,28584 -4040,29197 -3243,29704 -3433,29704 -4103,29303 -4334,29704 -4429,29704 -4375,29575 -4346,29511 -4331,29480 -4314,29449 -2614,26489 -2592,26449 -2574,26409 -2559,26369 -2547,26330 -2539,26290 -2533,26251 -2530,26211 -2530,26172 -2532,26132 -2536,26091 -2551,26010 -2574,25926 -2602,25839 -3497,26081 -3635,26322 -4802,28411 -4818,28438 -4835,28464 -4873,28514 -4951,28613 -4951,28044 -4808,27841 -4951,27759 -4951,27617 -4747,27728 -4335,26982 -4951,26668 -4951,26573 -4272,26868 -3809,26041 -4732,25488 -4951,25813 -4951,25576 -4942,25564 -4931,25552 -4909,25529 -4888,25505 -4879,25493 -4872,25481 -4870,25475 -4868,25470 -4867,25464 -4867,25458 -4867,25452 -4869,25446 -4871,25440 -4875,25434 -4880,25428 -4886,25422 -4893,25416 -4902,25410 -4923,25398 -4951,25386 -4951,25244 -4784,25291 -4394,24466 -4951,24153 -4951,24010 -4341,24371 -3821,23294 -4636,22867 -4951,23393 -4951,23156 -4856,23002 -4776,22842 -4708,22678 -4652,22511 -4603,22340 -4560,22168 -4480,21821 -4477,21827 -4951,22017 -4951,21495 -4944,21490 -4936,21484 -4922,21473 -4929,21467 -4936,21461 -4944,21454 -4951,21448 -4951,21353 -4707,21413 -4387,21264 -4385,21165 -4387,21069 -4395,20976 -4409,20885 -4430,20798 -4445,20755 -4461,20713 -4480,20672 -4502,20631 -4526,20591 -4554,20552 -4600,20487 -4643,20420 -4681,20351 -4714,20280 -4741,20207 -4762,20131 -4778,20053 -4786,19972 -4789,19936 -4792,19919 -4796,19902 -4801,19885 -4807,19870 -4814,19855 -4822,19841 -4832,19829 -4843,19818 -4856,19808 -4871,19800 -4888,19794 -4907,19789 -4928,19787 -4951,19787 -4951,19692 -4806,19655 -4806,18638 -4575,18417 -4268,18397 -4213,18261 -4427,18118 -4081,16086 -4376,15950 -4360,16002 -4951,16418 -4951,16276 -4827,16204 -4765,16167 -4704,16126 -4646,16080 -4618,16054 -4591,16026 -4565,15996 -4541,15963 -4517,15927 -4496,15888 -4951,15707 -4951,15090 -4845,14663 -4842,14648 -4841,14634 -4840,14620 -4841,14607 -4843,14595 -4847,14583 -4851,14573 -4857,14563 -4864,14554 -4873,14546 -4882,14539 -4894,14533 -4906,14528 -4920,14524 -4935,14521 -4951,14519 -4951,14377 -4785,14428 -4300,13525 -4616,13370 -4951,13902 Z M 19160,9076 L 19167,9066 19157,9081 18805,9275 18950,9366 19160,9076 Z M 262,7584 L 266,7590 256,7581 593,7410 418,7216 262,7584 Z M -429,18996 L -424,18990 -435,18999 -488,19017 -538,19039 -586,19064 -632,19092 -720,19155 -804,19224 -971,19370 -1061,19442 -1157,19508 -978,19600 -862,19446 -659,19482 -429,18996 Z M 15932,13189 L 15932,14573 16154,14464 15927,13194 15921,13184 15932,13189 Z M -1911,29467 L -2051,28790 -2108,28787 -2399,29227 -1905,29464 -1911,29467 Z M 5346,24396 L 5353,24387 5344,24401 4582,25408 5053,25497 5346,24396 Z M 15119,18124 L 15129,18118 15124,18129 14559,18256 14366,18658 14635,19171 15119,18124 Z M 7816,20359 L 7807,20368 7811,20355 8558,20000 8431,19487 7884,19750 7816,20359 Z M -1964,26764 L -1932,27058 -1887,27354 -1827,27659 -1753,27977 -1239,27216 -1971,26766 -1961,26763 -1964,26764 Z M -1928,9570 L -1920,9581 -1928,9564 -1424,9535 -1173,9516 -924,9488 -847,9474 -771,9456 -696,9433 -620,9407 -307,9296 -562,8582 -1928,9570 Z M 1003,18442 L 617,19332 962,19487 1043,19480 1121,19469 1196,19454 1269,19435 1409,19388 1541,19329 1668,19260 1791,19181 1911,19096 2030,19004 1001,18442 277,18097 -124,19007 513,19291 796,18635 828,18564 846,18532 856,18517 867,18503 879,18490 892,18478 907,18468 922,18459 940,18452 959,18447 980,18443 1003,18442 Z M 13232,27563 L 13658,27925 15977,27170 15880,26728 15798,26285 15651,25398 15486,24513 15380,24073 15251,23636 15097,23817 13912,25233 13822,25337 13776,25388 13728,25438 13678,25485 13626,25529 13572,25568 13516,25602 13441,25645 13370,25692 13236,25793 13110,25904 12990,26021 12757,26261 12637,26378 12511,26490 12566,27746 13232,27563 Z M 14608,8942 L 14463,8264 14452,8208 14446,8153 14445,8098 14448,8045 14456,7991 14468,7938 14485,7884 14505,7829 14585,7651 14677,7482 14779,7319 14890,7161 15009,7008 15135,6857 15400,6558 15328,6019 12571,6279 12836,7658 12473,7855 12813,9126 14608,8942 Z M 4292,25317 L 5981,23044 3958,22046 2958,24021 3776,24439 3398,24863 4292,25317 Z M 5893,18416 L 5987,18565 6072,18720 6238,19035 6330,19186 6381,19258 6437,19326 6498,19392 6564,19453 6637,19510 6717,19561 6734,19830 6736,19962 6731,20094 6715,20224 6689,20354 6670,20418 6648,20482 6622,20546 6591,20609 7188,20724 7246,20632 7295,20537 7333,20440 7363,20341 7385,20241 7398,20140 7405,20038 7405,19937 7398,19811 7386,19685 7350,19433 7309,19180 7273,18928 7262,18812 7257,18695 7259,18577 7263,18519 7268,18461 7276,18397 7287,18333 7313,18205 7373,17951 7549,17203 6553,16354 6353,16536 6613,17008 6554,17047 6248,16632 5348,17444 5837,18302 6396,17739 6308,17357 6382,17338 6536,17764 5893,18416 Z M 11281,11445 L 11136,11641 10983,11827 10822,12004 10653,12172 10475,12331 10287,12483 10090,12626 9883,12761 10869,14152 12007,13943 12269,13528 12521,13109 12636,12894 12738,12673 12826,12444 12896,12206 12695,12108 12487,12027 12065,11883 11856,11804 11654,11710 11556,11655 11461,11593 11369,11523 11281,11445 Z M 12552,6171 L 15288,5912 15295,5835 15295,5755 15278,5591 15237,5424 15174,5255 15091,5088 14988,4925 14868,4770 14731,4624 14579,4492 14413,4374 14235,4275 14046,4198 13848,4144 13641,4117 13427,4119 13208,4154 13163,4245 13112,4332 13056,4415 12995,4493 12930,4568 12861,4640 12712,4776 12553,4904 12385,5026 12038,5266 12416,5572 12552,6171 Z M 7631,2833 L 7152,2866 6925,2885 6704,2913 6413,2964 6123,3021 5544,3144 5001,3263 5155,3822 5226,4093 5289,4362 5300,4408 5314,4452 5329,4495 5347,4535 5367,4574 5388,4612 5436,4683 5490,4749 5550,4812 5615,4872 5683,4931 7831,4301 7631,2833 Z M 4039,21889 L 6096,22882 7284,21069 5751,20709 5717,20760 5690,20812 5669,20866 5654,20921 5643,20976 5636,21033 5631,21147 5631,21378 5625,21492 5617,21549 5605,21604 5546,21604 5512,21032 4679,20629 4039,21889 Z M 5427,14799 L 6744,15933 6843,15822 6402,15346 7087,14872 7463,15315 8016,14840 7684,14339 7896,14187 7418,13309 6231,13719 6223,13722 6216,13726 6208,13730 6201,13734 6187,13745 6173,13756 6160,13769 6148,13782 6136,13795 6126,13809 5427,14799 Z M -3136,2212 L -3971,3504 -3897,3562 -3824,3613 -3751,3655 -3676,3689 -3601,3715 -3523,3735 -3443,3747 -3360,3752 -3142,3763 -2924,3780 -2487,3820 -150,4003 -137,4003 -124,4003 -111,4001 -97,3998 -71,3991 -44,3982 10,3959 37,3949 64,3939 74,3860 -313,3616 -507,3497 -706,3383 -765,3352 -826,3324 -887,3298 -950,3273 -1078,3231 -1208,3195 -1289,3177 -1370,3162 -1534,3137 -1698,3112 -1779,3097 -1860,3079 -1910,3066 -1960,3051 -2010,3034 -2059,3014 -2107,2992 -2154,2969 -2199,2942 -2241,2914 -2463,2747 -2683,2574 -3136,2212 Z M -19,15422 L -3021,13922 -2935,15163 -471,16354 -19,15422 Z M 9121,17898 L 11588,19893 12453,18650 11557,17781 10715,18590 9646,17405 9121,17898 Z M 11547,2450 L 11676,2621 11789,2796 11839,2885 11884,2976 11923,3069 11956,3163 11982,3259 12001,3357 12013,3457 12017,3559 12012,3664 11999,3771 11976,3881 11944,3994 12067,4007 12121,4012 12174,4014 12766,4028 13061,4030 13357,4023 13517,4018 13673,4022 13827,4035 13977,4060 14124,4099 14196,4124 14267,4153 14337,4187 14406,4225 14473,4268 14540,4316 14542,4318 14545,4319 14547,4320 14550,4322 14557,4324 14565,4326 14584,4332 14610,4340 14997,4286 14379,3045 14044,3045 12744,3088 12698,3087 12653,3083 12609,3076 12566,3069 12418,3037 11766,2198 11547,2450 Z M -2447,6509 L 81,7690 347,7106 -1038,5398 -1823,5841 -2005,5970 -2091,6041 -2173,6119 -2250,6204 -2322,6297 -2388,6398 -2447,6509 Z M 11298,6417 L 9606,6632 9682,6897 9771,7152 9871,7400 9982,7640 10103,7873 10232,8102 10512,8549 11694,8051 11298,6417 Z M -646,23354 L 1184,24142 1199,24148 1215,24152 1232,24156 1248,24159 1282,24162 1317,24162 1389,24161 1424,24160 1459,24161 1665,23905 1583,23832 1508,23757 1440,23680 1380,23602 1328,23521 1284,23440 1248,23356 1220,23270 1200,23182 1188,23092 1185,23000 1191,22906 1206,22810 1230,22712 1263,22611 1305,22508 -26,21913 -646,23354 Z M 15972,5603 L 16838,7349 18110,6417 17226,4877 15972,5603 Z M 15696,20656 L 15689,20754 15687,20792 15687,20810 15688,20827 15771,21699 15780,21789 15786,21877 15787,21965 15783,22052 15773,22139 15756,22225 15732,22311 15700,22396 15680,22447 15661,22499 15629,22605 15567,22820 16407,23380 17411,21733 15696,20656 Z M 8396,17299 L 9237,16562 8145,14965 6896,16048 8396,17299 Z M 3895,6606 L 3152,6606 3115,5924 2359,6468 2555,8378 4028,7905 3895,6606 Z M 14779,8857 L 16603,7520 16039,6394 15781,6546 15548,6716 15339,6903 15154,7106 14989,7324 14844,7557 14717,7804 14607,8065 14779,8857 Z M 14364,21998 L 15465,22751 15643,22217 15672,22088 15682,22022 15687,21956 15688,21890 15683,21823 15673,21754 15657,21685 15651,21660 15648,21634 15645,21607 15644,21581 15642,21527 15641,21500 15639,21473 15542,20540 14836,20081 14272,20823 14819,21212 14364,21998 Z M -1262,8720 L -1425,8404 -1281,7829 -1133,7244 -2448,6630 -2468,6682 -2489,6755 -2533,6954 -2621,7485 -2686,8036 -2702,8260 -2704,8349 -2702,8419 -2444,8478 -2313,8509 -2183,8543 -1771,8630 -1671,8659 -1622,8677 -1575,8698 -1528,8723 -1483,8753 -1440,8786 -1398,8825 -1262,8720 Z M 9325,16873 L 10709,18425 11464,17636 10162,16181 9325,16873 Z M 1845,14582 L 2861,15531 2881,15527 2901,15521 2920,15514 2939,15505 2957,15495 2975,15483 2992,15470 3008,15456 3025,15440 3040,15423 3070,15386 3099,15344 3125,15299 3667,14327 3676,14310 3684,14292 3698,14254 3728,14169 2361,13423 1845,14582 Z M 11268,23314 L 10780,23038 10397,23771 11538,24313 11342,24742 11708,24742 11890,24488 11984,24360 12083,24236 12131,24173 12173,24109 12209,24043 12239,23975 12264,23904 12283,23831 12296,23756 12305,23677 12320,23531 12343,23383 12397,23065 11699,22762 11267,23618 11223,23588 11217,23584 11214,23581 11213,23580 11213,23580 11212,23579 11212,23579 11212,23579 11212,23578 11212,23578 11212,23578 11268,23314 Z M 1368,8759 L 2448,8411 2256,6543 962,7479 1368,8759 Z M 9320,16505 L 9984,15951 9628,15483 9461,15256 9305,15026 9159,14783 9021,14531 8739,14001 8682,14007 8628,14019 8576,14036 8525,14058 8477,14083 8429,14111 8334,14173 8239,14236 8139,14296 8087,14322 8032,14345 7975,14364 7915,14378 9320,16505 Z M 205,25284 L 1426,25924 2298,24768 1979,24568 1819,24477 1656,24394 1488,24324 1313,24269 1222,24248 1129,24232 1032,24221 933,24215 205,25284 Z M -1083,13208 L -1036,13370 -1018,13430 -1009,13457 -999,13483 -673,14269 -641,14343 -612,14417 -588,14491 -570,14566 -563,14604 -559,14642 -557,14681 -557,14720 -560,14759 -565,14799 -573,14840 -585,14881 -587,14889 -589,14897 -589,14905 -590,14913 -589,14931 -587,14948 -581,14985 -577,15004 -575,15023 30,15323 758,13811 -149,13504 -607,13352 -1083,13208 Z M 6705,28932 L 7121,29037 7530,29126 7939,29194 8145,29218 8354,29235 8582,27798 7575,27673 6705,28932 Z M 13109,12217 L 13195,12271 13271,12330 13337,12394 13394,12462 13443,12535 13486,12611 13524,12690 13557,12772 13612,12941 13662,13114 13714,13288 13776,13458 14712,13176 14239,11603 13425,11423 13109,12217 Z M -149,28017 L -1159,27295 -1740,28155 -1388,29661 -149,28017 Z M 6191,1257 L 4952,1352 5225,2913 6412,2677 6191,1257 Z M 18346,15519 L 18572,15208 18050,13632 17854,13727 17663,13828 17293,14043 16558,14520 18346,15519 Z M 2048,20661 L 2698,19344 2164,19064 1883,19254 1741,19342 1596,19422 1447,19491 1292,19546 1211,19569 1129,19586 1045,19600 959,19608 667,20323 1160,20542 1218,20512 1276,20489 1332,20473 1388,20464 1444,20460 1500,20462 1554,20468 1609,20479 1664,20494 1718,20511 1827,20555 2048,20661 Z M 3912,16862 L 2992,15983 1824,17009 2257,17710 3912,16862 Z M -4159,13544 L -4178,13560 -4194,13576 -4206,13592 -4215,13609 -4221,13625 -4224,13642 -4225,13659 -4225,13677 -4222,13694 -4218,13712 -4207,13747 -4182,13820 -4112,14023 -4098,14074 -4087,14124 -4083,14149 -4081,14174 -4081,14199 -4082,14224 -4109,14459 -4145,14693 -4229,15160 -4252,15281 -4277,15402 -4331,15651 -3314,16114 -3493,13696 -3688,13587 -3760,13554 -3792,13543 -3824,13534 -3855,13528 -3888,13525 -3923,13524 -3960,13525 -4048,13532 -4159,13544 Z M 11043,9304 L 12629,9149 12300,7906 10584,8659 11043,9304 Z M 9383,14310 L 10324,15674 11064,15063 11040,15003 11012,14946 10950,14837 10820,14629 10791,14576 10765,14523 10743,14468 10726,14412 10714,14353 10708,14292 10710,14228 10719,14161 10398,13681 9383,14310 Z M 12116,14105 L 10877,14342 11579,15585 11737,15541 11812,15514 11884,15484 11953,15451 12018,15414 12081,15373 12140,15329 12196,15281 12249,15230 12298,15175 12344,15116 12386,15054 12425,14987 12461,14916 12493,14842 12471,14756 12456,14671 12448,14586 12445,14501 12453,14331 12471,14162 12514,13821 12523,13649 12521,13563 12514,13476 12116,14105 Z M -1281,19474 L -924,19179 -747,19038 -657,18971 -565,18907 -503,18862 -447,18814 -396,18764 -351,18710 -309,18655 -271,18597 -205,18476 19,17956 -917,17531 -1753,19265 -1281,19474 Z M 11088,28057 L 12125,29172 12585,28961 12518,28837 12461,28711 12414,28584 12376,28456 12346,28328 12323,28198 12292,27939 12235,26916 11088,28057 Z M 7177,8760 L 7257,8741 7188,7195 5636,7695 5687,8007 5281,8162 5463,8610 5848,8497 6222,8377 6588,8269 6771,8226 6953,8192 6967,8209 6979,8226 6998,8263 7012,8301 7022,8340 7028,8380 7031,8421 7036,8502 7039,8541 7045,8580 7053,8616 7065,8651 7073,8667 7083,8683 7094,8698 7106,8712 7121,8725 7137,8738 7156,8749 7177,8760 Z M 3443,1888 L 3500,1866 3557,1850 3614,1840 3670,1835 3726,1835 3782,1839 3895,1857 4122,1913 4238,1941 4357,1963 4010,674 3167,408 2738,1589 3443,1888 Z M -3337,19173 L -3456,18871 -3523,18849 -3589,18823 -3717,18762 -3970,18630 -4101,18573 -4168,18550 -4238,18532 -4309,18519 -4384,18513 -4461,18514 -4541,18523 -4693,18664 -4693,19737 -3750,20106 -3337,19173 Z M -3283,16446 L -3976,16133 -4311,18078 -4093,18155 -4048,18095 -4001,18047 -3950,18008 -3897,17978 -3842,17956 -3784,17940 -3725,17930 -3664,17924 -3540,17920 -3412,17921 -3285,17917 -3222,17911 -3159,17900 -3283,16446 Z M -1705,1488 L -1996,2949 -965,3122 -539,1901 -1705,1488 Z M -614,10701 L -547,11859 -469,11907 -392,11946 -314,11978 -237,12002 -160,12021 -83,12033 -5,12040 72,12043 227,12036 384,12017 702,11965 607,11371 194,11371 192,11323 591,11228 492,10601 -614,10701 Z M 10049,22209 L 10811,20555 10486,20283 9281,20915 9733,22047 10049,22209 Z M 1347,22330 L 1704,21420 1536,21349 1460,21314 1423,21296 1388,21276 1322,21237 1289,21217 1257,21195 1227,21172 1200,21147 1187,21133 1176,21120 1166,21106 1157,21091 1130,21046 1101,21004 1071,20965 1038,20928 1004,20894 968,20863 930,20834 890,20807 806,20759 716,20717 619,20680 517,20648 46,21745 1347,22330 Z M 861,13850 L 127,15373 986,15800 1588,14447 1501,14368 1421,14284 1264,14111 1179,14030 1134,13993 1087,13957 1036,13925 982,13896 924,13871 861,13850 Z M 17756,12634 L 16242,13125 16405,14252 17908,13349 17756,12634 Z M 10513,15893 L 11694,17217 12094,17240 12304,16757 12135,16596 11980,16426 11837,16250 11703,16069 11190,15331 10513,15893 Z M -2693,10900 L -2622,12184 -1351,11852 -1478,10783 -2693,10900 Z M 6520,2626 L 7564,2542 7370,1163 6299,1249 6520,2626 Z M 12722,13889 L 12676,14057 12643,14204 12624,14333 12620,14393 12619,14449 12621,14503 12627,14554 12636,14604 12649,14652 12665,14700 12684,14747 12707,14794 12733,14841 13446,15045 14235,13481 14190,13448 12722,13889 Z M -3725,23344 L -4246,24430 -3243,25024 -3039,24654 -2942,24481 -2843,24313 -2811,24256 -2798,24227 -2786,24198 -2776,24169 -2768,24140 -2762,24111 -2758,24081 -2756,24051 -2756,24021 -2757,23990 -2761,23959 -2767,23928 -2775,23896 -2785,23864 -2797,23831 -3725,23344 Z M 1902,10355 L 1802,8922 697,9282 811,10453 1902,10355 Z M 8859,3181 L 8102,2955 8189,3533 8224,3818 8249,4102 8262,4385 8259,4667 8237,4949 8193,5233 8454,5359 8859,5225 8859,3181 Z M 18084,23137 L 17519,24127 18514,24802 19130,23742 18084,23137 Z M 2911,786 L 1667,440 1783,1945 2407,2170 2911,786 Z M 11507,10770 L 12460,10922 12457,10199 12451,9830 12430,9454 11311,9595 11507,10770 Z M 15668,20277 L 15798,20172 15935,20075 16210,19883 16342,19779 16404,19722 16464,19662 16520,19598 16572,19528 16619,19453 16662,19371 15563,18672 15310,19282 15029,19862 15668,20277 Z M 10835,4887 L 10684,4933 10542,4988 10409,5051 10285,5122 10171,5200 10067,5286 9973,5380 9891,5480 9819,5587 9758,5700 9710,5819 9673,5944 9649,6075 9638,6211 9640,6352 9655,6498 10775,6372 10835,4887 Z M 3684,18502 L 4170,18119 3850,17695 3406,17808 3385,17731 3874,17559 4268,18044 4483,17870 4414,17608 4378,17479 4335,17355 4308,17295 4278,17237 4243,17182 4204,17129 4158,17079 4107,17032 4048,16988 3982,16948 2696,17610 3684,18502 Z M 10489,28293 L 11307,27398 11086,27207 10850,27014 10724,26922 10592,26834 10451,26753 10301,26681 9784,28044 10489,28293 Z M 10334,13591 L 9568,12517 8895,12620 8977,13030 9071,13429 9127,13625 9192,13819 9266,14012 9352,14202 10334,13591 Z M 7729,23990 L 6866,23571 6414,23787 5913,23615 5891,23658 5865,23699 5808,23777 5685,23925 5628,24003 5603,24044 5580,24088 5561,24134 5546,24183 5536,24236 5531,24293 6568,24556 6949,24059 7399,24302 7300,24739 7555,24795 7729,23990 Z M 8865,12495 L 9617,12411 9821,12648 10082,12499 10029,12422 9982,12344 9941,12264 9906,12183 9876,12101 9851,12018 9812,11847 9786,11673 9769,11496 9743,11132 8729,11274 8865,12495 Z M 7570,21702 L 6920,23005 7272,23179 7511,22755 7576,22785 7394,23247 7925,23513 8407,22481 7974,22300 7815,22381 7781,22355 7997,21879 7570,21702 Z M 15773,20348 L 16865,21057 17472,19987 16765,19442 16721,19518 16674,19589 16622,19655 16566,19717 16447,19830 16318,19934 16045,20132 15907,20235 15773,20348 Z M 5938,25861 L 5784,26652 7030,27287 7269,26143 5938,25861 Z M 664,1943 L -32,2772 -639,2524 -857,3166 -63,3627 1136,2163 664,1943 Z M 3202,23140 L 3809,21942 2877,21541 2338,22754 3202,23140 Z M -201,9266 L 1094,8843 825,8018 295,7963 -465,8512 -201,9266 Z M 3293,16040 L 3696,16460 3891,16661 4090,16854 4168,16930 4239,17009 4305,17090 4363,17176 4414,17266 4457,17361 4491,17461 4516,17567 4521,17592 4529,17617 4538,17642 4548,17668 4597,17787 5149,17346 4651,16276 4337,16216 4266,16201 4197,16185 4130,16165 4066,16142 4000,16113 3935,16079 3808,16005 3554,15844 3293,16040 Z M -2099,2896 L -1691,848 -2293,584 -2694,2421 -2099,2896 Z M -2951,6540 L -3617,6499 -3990,8132 -3171,8317 -2951,6540 Z M 10060,1321 L 10060,2915 10824,3398 11145,3234 10944,2697 11167,2402 10829,2189 10746,2136 10667,2079 10591,2019 10520,1955 10454,1884 10391,1809 10333,1731 10277,1650 10060,1321 Z M -1817,12950 L -2580,12685 -2694,12494 -3096,12577 -3030,13792 -2391,14111 -1817,12950 Z M 1494,16461 L 2712,15631 1769,14753 1210,16007 1494,16461 Z M 17218,18592 L 16897,18346 16736,18229 16572,18120 16403,18022 16226,17938 16135,17902 16040,17871 15943,17844 15842,17823 15596,18562 16736,19286 17218,18592 Z M 8222,21408 L 8237,21345 8439,21359 8623,21022 7621,21074 6688,22518 6960,22672 7524,21563 8146,21821 7990,22189 8459,22369 8773,21702 8222,21408 Z M -3774,23195 L -3231,22071 -4088,21631 -4307,21733 -4621,22748 -3774,23195 Z M -61,12374 L -504,13271 808,13711 1182,12932 -61,12374 Z M 9950,4515 L 9950,3212 8998,3212 8998,4429 9950,4515 Z M 7418,25983 L 8579,26301 8739,25218 7638,24947 7418,25983 Z M 5779,5016 L 5815,5082 5834,5111 5854,5139 5875,5164 5896,5187 5919,5208 5943,5227 5967,5244 5993,5259 6020,5272 6048,5283 6078,5293 6109,5301 6141,5307 6174,5311 7253,5433 7326,5436 7361,5436 7396,5433 7430,5428 7463,5421 7496,5412 7527,5400 7556,5385 7584,5368 7611,5347 7636,5323 7659,5295 7680,5264 7699,5229 7716,5190 7747,5100 7773,5010 7792,4918 7805,4825 7811,4729 7811,4632 7804,4531 7791,4428 5779,5016 Z M -1043,20353 L -1085,20314 -1828,20629 -1862,20552 -1774,20499 -1682,20452 -1493,20370 -1305,20292 -1214,20249 -1127,20202 -1127,19889 -1892,19553 -2490,20789 -2214,20751 -1391,21136 -1043,20353 Z M 14819,13148 L 15642,12891 14939,11361 14355,11605 14819,13148 Z M 4214,20355 L 3721,21527 3018,21240 2935,21446 3859,21841 4622,20340 2865,19428 2579,19989 2936,20160 3167,19818 4214,20355 Z M -579,26442 L -1093,27208 -82,27928 516,27133 -579,26442 Z M 17159,25410 L 17627,24743 15454,23286 15440,23333 15431,23378 15426,23421 15425,23464 15427,23505 15431,23545 15447,23623 15491,23773 15513,23848 15529,23924 17120,24873 16909,25254 17159,25410 Z M 17049,22537 L 16498,23444 17425,24064 17987,23084 17049,22537 Z M 12003,26788 L 11995,26767 11984,26744 11950,26694 11904,26638 11847,26577 11705,26445 11532,26307 11339,26168 11136,26038 10934,25923 10741,25832 10400,26473 11484,27284 12003,26788 Z M 12299,15474 L 12374,15615 12440,15756 12495,15899 12517,15970 12535,16042 12548,16115 12557,16189 12560,16263 12558,16338 12550,16414 12536,16491 12514,16569 12486,16649 13087,16884 13339,16343 13189,16046 13155,15975 13127,15903 13104,15832 13096,15795 13090,15759 13086,15723 13085,15687 13088,15615 13097,15541 13111,15466 13178,15159 12627,15001 12299,15474 Z M 9936,2007 L 8769,1700 8735,1914 8726,2017 8726,2116 8729,2164 8736,2212 8747,2260 8761,2307 8779,2354 8802,2400 8830,2445 8863,2491 8894,2534 8921,2581 8946,2629 8969,2680 9060,2896 9936,2896 9936,2007 Z M -1376,10664 L -59,10536 -94,10043 -110,9927 -134,9814 -150,9759 -169,9705 -191,9652 -217,9599 -1454,9899 -1376,10664 Z M 2737,10205 L 2815,10187 2888,10164 2956,10136 3020,10104 3080,10068 3138,10029 3244,9943 3440,9757 3537,9665 3639,9579 3141,8495 2584,8673 2737,10205 Z M -2029,22565 L -1438,21239 -2101,20921 -2126,20909 -2151,20899 -2175,20891 -2199,20885 -2223,20880 -2247,20878 -2270,20878 -2294,20879 -2317,20882 -2340,20888 -2364,20895 -2387,20905 -2410,20916 -2434,20930 -2457,20945 -2481,20963 -2394,22376 -2029,22565 Z M 13155,9383 L 13040,11157 13119,11195 13153,11210 13169,11217 13185,11223 13196,11227 13208,11230 13220,11232 13233,11234 13300,11244 14077,9289 13155,9383 Z M 6855,5871 L 5646,5682 5743,6707 5745,6718 5748,6729 5751,6740 5756,6750 5768,6772 5781,6793 5813,6836 5828,6859 5843,6882 6368,6687 6368,6471 6403,6461 6516,6635 7006,6447 6855,5871 Z M -2784,8512 L -3161,9664 -2548,9664 -1473,8885 -1636,8808 -1799,8748 -1963,8701 -2127,8663 -2455,8596 -2619,8558 -2784,8512 Z M 9239,26562 L 9044,27786 9678,28008 10200,26637 9239,26562 Z M 12572,23831 L 12524,25122 13449,25470 13815,25059 13498,24701 13131,25005 13083,24952 13355,24649 12572,23831 Z M 4720,16111 L 4841,16110 4954,16102 5059,16087 5158,16064 5250,16034 5338,15995 5422,15949 5503,15894 5338,15603 5493,15473 4852,14907 4754,14949 4667,14998 4591,15052 4525,15112 4467,15176 4416,15246 4373,15319 4335,15397 4302,15477 4273,15561 4224,15735 4133,16100 4574,16130 4557,16076 4546,16023 4540,15973 4539,15926 4542,15879 4549,15835 4559,15791 4572,15750 4605,15668 4643,15590 4720,15435 4791,15457 4633,15929 4720,16111 Z M -958,13912 L -1221,13146 -1710,12984 -2009,13583 -2287,14158 -1987,14316 -1691,14452 -1424,14024 -958,13912 Z M 11403,4412 L 11517,4322 11616,4222 11700,4114 11769,3999 11824,3879 11864,3754 11888,3626 11899,3496 11894,3366 11874,3237 11839,3110 11789,2987 11723,2869 11643,2757 11548,2653 11437,2557 11270,2743 11471,3271 10863,3584 10889,3718 10907,3781 10927,3842 10950,3901 10976,3958 11005,4012 11037,4065 11072,4115 11110,4163 11151,4209 11196,4254 11243,4296 11293,4336 11403,4412 Z M -4705,25379 L -3752,25941 -3299,25119 -4294,24530 -4705,25379 Z M 2291,22854 L 1849,23847 2579,24368 3151,23238 2291,22854 Z M 16215,13018 L 17742,12522 17623,11867 16015,12436 16215,13018 Z M 7165,10667 L 5569,10839 5643,11455 7238,11340 7165,10667 Z M 10658,19722 L 10199,19357 10126,19437 10049,19509 9968,19574 9884,19632 9798,19685 9708,19732 9522,19812 9327,19879 9127,19938 8714,20052 9115,20612 9333,20543 9541,20461 9741,20366 9934,20259 10121,20140 10303,20011 10482,19871 10658,19722 Z M -2061,17007 L -2430,17825 -1406,18295 -1016,17484 -2061,17007 Z M 11534,4482 L 11801,5299 12509,4803 12672,4667 12749,4594 12822,4517 12890,4433 12953,4344 13011,4248 13063,4144 11848,4144 11534,4482 Z M 3328,3323 L 3091,2850 1775,2441 1668,2640 2063,3465 3328,3323 Z M -888,17224 L -520,16454 -1580,15940 -1940,16743 -888,17224 Z M 6073,26920 L 5215,26496 5204,26604 5185,26708 5159,26806 5126,26900 5086,26991 5042,27078 4940,27246 4477,27887 4798,28051 4933,27842 5000,27743 5068,27647 5187,27458 5204,27436 5223,27415 5243,27395 5265,27376 5289,27359 5316,27345 5345,27332 5378,27322 5252,27599 5610,27770 6073,26920 Z M 18664,9398 L 17646,10161 17859,11472 17911,11472 18812,9516 18664,9398 Z M 2901,5718 L 1478,5174 1254,5976 2112,6290 2901,5718 Z M 5253,17498 L 4609,18008 4541,18281 5036,19077 5712,18308 5253,17498 Z M 7538,8391 L 8225,8391 8104,6816 7465,7016 7538,8391 Z M 14240,2759 L 13869,2014 12947,2139 12478,2630 12618,2817 14240,2759 Z M 17911,16284 L 18318,15628 17367,15101 16920,16158 17911,16284 Z M 8162,5340 L 8111,5388 8209,6698 9012,6579 8854,5357 8670,5412 8582,5432 8538,5439 8495,5444 8453,5446 8410,5444 8369,5439 8327,5429 8286,5415 8244,5395 8203,5371 8162,5340 Z M -472,24927 L 108,25233 858,24127 94,23795 -472,24927 Z M 17381,10316 L 16583,10928 17085,11938 17606,11754 17381,10316 Z M 13262,21760 L 11710,20565 11384,21198 13106,21981 13262,21760 Z M 14612,23346 L 13913,22749 13299,23310 13972,24076 14612,23346 Z M 14056,15221 L 14827,13547 14728,13286 14406,13391 13553,15074 14056,15221 Z M 4452,2322 L 3671,2099 3379,2451 3777,3211 4637,3032 4452,2322 Z M 18480,18216 L 17303,17471 16953,18035 17250,18249 17399,18347 17551,18438 17705,18521 17864,18596 18029,18660 18200,18714 18480,18216 Z M 16493,10993 L 15727,11580 15987,12330 16978,11973 16493,10993 Z M 11406,24363 L 10353,23878 10231,24077 10178,24176 10155,24226 10135,24276 10118,24328 10105,24380 10095,24434 10090,24489 10090,24545 10095,24603 10105,24663 10121,24725 11042,25024 11406,24363 Z M 13046,22075 L 12226,21706 11747,22661 12483,22981 13046,22075 Z M 9028,6691 L 8221,6810 8296,7870 9162,7756 9028,6691 Z M -2560,1292 L -3584,1072 -3795,1544 -2793,2342 -2560,1292 Z M 4959,7607 L 4903,7475 4856,7342 4785,7075 4736,6806 4704,6535 4654,5993 4622,5723 4575,5455 4207,5416 4473,7755 4959,7607 Z M 89,5547 L 1149,5937 1375,5133 437,4779 89,5547 Z M -1136,8642 L 38,7791 -1026,7297 -1146,7766 -1204,7986 -1267,8202 -1276,8234 -1283,8265 -1288,8295 -1291,8325 -1291,8354 -1289,8382 -1285,8409 -1279,8436 -1270,8463 -1258,8489 -1245,8515 -1228,8541 -1209,8566 -1187,8591 -1163,8617 -1136,8642 Z M 12424,19479 L 13500,20121 13632,19909 13405,19743 13299,19663 13197,19583 13149,19547 13100,19513 13000,19445 12952,19409 12908,19369 12888,19348 12868,19325 12851,19301 12835,19275 12879,19225 13708,19816 13940,19496 12891,18809 12424,19479 Z M 16962,21105 L 17069,21185 17162,21250 17245,21300 17284,21320 17322,21337 17360,21350 17396,21362 17433,21370 17471,21377 17509,21381 17549,21383 17634,21382 18188,20531 17563,20054 16962,21105 Z M -1455,18393 L -2467,17929 -2555,18097 -2596,18179 -2631,18260 -2645,18301 -2655,18343 -2662,18385 -2664,18428 -2662,18472 -2654,18518 -2641,18564 -2622,18612 -2362,18722 -2181,19087 -1853,19218 -1455,18393 Z M 9643,18907 L 8546,19431 8661,19945 9059,19842 9253,19788 9442,19726 9623,19650 9711,19604 9796,19554 9879,19497 9960,19434 10037,19363 10111,19284 9643,18907 Z M -569,24875 L -6,23751 -687,23456 -1149,24572 -569,24875 Z M 2154,17761 L 1740,17081 875,17832 654,17774 584,17759 556,17755 532,17754 512,17754 494,17757 486,17760 478,17763 464,17770 450,17780 436,17792 406,17823 1215,18243 2154,17761 Z M 15656,15971 L 15058,15809 14783,17065 15371,17369 15656,15971 Z M 16879,4275 L 15645,4944 15925,5504 17169,4781 16879,4275 Z M -790,17272 L 143,17692 478,16939 -420,16504 -790,17272 Z M 843,17719 L 1680,16983 1156,16128 506,17587 843,17719 Z M 15385,2106 L 14200,2026 14671,2981 15694,2543 15385,2106 Z M 707,11246 L 1957,11105 1904,10465 607,10591 707,11246 Z M -3135,22126 L -3675,23246 -2769,23722 -2856,22269 -3135,22126 Z M 11648,5442 L 11359,4617 10968,4800 10884,6328 10940,6364 10965,6350 10992,6336 11045,6309 11071,6294 11094,6278 11105,6270 11115,6260 11124,6251 11132,6240 11648,5442 Z M 16493,14610 L 16388,16037 16806,16137 17270,15045 16493,14610 Z M 16072,9446 L 15690,8547 14898,9126 15130,9802 16072,9446 Z M 15690,11466 L 16624,10756 16342,10096 15432,10702 15690,11466 Z M -513,26352 L 585,27046 979,26510 -185,25862 -513,26352 Z M 3294,29275 L 4256,27981 3820,27747 2827,29045 2894,29089 2921,29105 2934,29113 2947,29119 3294,29275 Z M 13078,12332 L 12993,12516 12919,12700 12858,12883 12810,13064 12774,13243 12750,13420 12740,13595 12742,13767 13656,13493 13556,13167 13512,13012 13474,12858 13463,12815 13450,12774 13435,12735 13418,12698 13398,12662 13377,12628 13354,12595 13329,12563 13274,12502 13213,12444 13148,12388 13078,12332 Z M 5708,27824 L 6454,28171 6984,27391 6167,26973 5708,27824 Z M 5611,16038 L 4783,16291 5238,17278 5993,16621 5611,16038 Z M 14894,11257 L 14157,9648 14092,9761 14038,9871 14016,9925 13997,9979 13981,10033 13970,10087 13962,10141 13958,10196 13958,10250 13963,10305 13972,10361 13986,10417 14004,10474 14027,10532 14057,10606 14084,10681 14130,10834 14217,11142 14332,11492 14894,11257 Z M 18363,25244 L 17897,25902 18739,26463 19203,25827 18363,25244 Z M 2403,13320 L 2897,13583 2906,13359 2905,13138 2897,12922 2882,12708 2837,12285 2783,11864 2304,11927 2403,13320 Z M 3547,15708 L 4723,14825 4547,14500 4524,14505 4499,14509 4449,14517 4426,14522 4415,14525 4406,14528 4397,14532 4390,14537 4387,14539 4384,14542 4382,14545 4380,14548 4363,14577 4344,14603 4324,14625 4302,14646 4279,14663 4255,14679 4230,14693 4204,14706 3987,14785 3845,14843 3702,14898 3411,15006 3160,15468 3547,15708 Z M 7165,5897 L 7418,6908 8100,6704 8010,5582 7963,5632 7915,5676 7866,5714 7816,5748 7766,5777 7715,5801 7663,5822 7611,5840 7558,5854 7504,5865 7394,5881 7281,5891 7165,5897 Z M 15263,11103 L 14630,9239 14286,9266 14206,9488 14999,11218 15263,11103 Z M 12274,7800 L 11886,6348 11409,6412 11797,8001 12274,7800 Z M 14168,16751 L 14652,15687 13988,15498 13505,16408 14168,16751 Z M 1872,21483 L 1523,22389 2237,22708 2626,21833 1872,21483 Z M 2985,20293 L 2520,20107 2219,20738 2969,21081 3552,20144 3205,19966 2985,20293 Z M -2192,25288 L -1986,25282 -1897,25274 -1818,25261 -1747,25244 -1684,25221 -1627,25193 -1577,25158 -1532,25117 -1492,25069 -1456,25014 -1423,24951 -1393,24879 -1365,24799 -1313,24610 -2305,24089 -2192,25288 Z M 9221,7329 L 9368,8461 9595,8446 9812,8423 10024,8391 10235,8352 9692,7306 9221,7329 Z M 5475,24399 L 5156,25519 5521,25597 5863,25658 6074,24547 5475,24399 Z M 8606,22379 L 8494,22566 8382,22775 8277,22993 8182,23211 8104,23414 8047,23592 8029,23667 8018,23732 8014,23784 8016,23806 8020,23823 8308,23370 8349,23380 8388,23394 8426,23410 8462,23428 8601,23510 8671,23550 8707,23568 8744,23584 8783,23597 8824,23607 8867,23614 8912,23616 8829,23381 9180,22628 8606,22379 Z M -1249,24520 L -811,23467 -979,23116 -1239,23027 -1787,24237 -1249,24520 Z M 2008,11839 L 1959,11225 726,11352 814,11967 2008,11839 Z M 3911,11022 L 4144,13241 4439,13224 4272,10979 3911,11022 Z M -55,21701 L 422,20586 -257,20273 -354,20444 -324,20742 -319,20810 -317,20875 -319,20939 -326,21001 -340,21062 -359,21122 -383,21181 -410,21241 -529,21490 -55,21701 Z M 8971,5237 L 9818,5354 9993,5200 9993,4931 9977,4630 8971,4545 8971,5237 Z M 11943,20171 L 12453,20561 12718,20219 13199,20543 13432,20208 12362,19571 11943,20171 Z M 4006,19423 L 4594,18604 4391,18179 3292,19034 4006,19423 Z M -712,21607 L -1190,21392 -1767,22688 -1286,22868 -712,21607 Z M 4145,9238 L 4050,8203 3246,8463 3735,9514 4145,9238 Z M -61,2647 L 553,1895 -281,1503 -600,2412 -61,2647 Z M 697,10464 L 590,9315 -75,9528 79,10526 697,10464 Z M -1482,10669 L -1582,9865 -2338,9937 -2331,9996 -2328,10053 -2328,10110 -2331,10165 -2337,10218 -2347,10271 -2359,10323 -2375,10373 -2394,10423 -2415,10471 -2440,10519 -2467,10565 -2529,10655 -2602,10742 -2563,10776 -1482,10669 Z M 9636,28111 L 9022,27904 8801,29313 9331,29313 9255,29124 9636,28111 Z M 17195,9019 L 16717,7795 16163,8205 16759,9188 17195,9019 Z M -127,21867 L -614,21657 -1183,22912 -965,23000 -564,22884 -127,21867 Z M 13289,22212 L 12660,23302 12651,23319 12644,23337 12637,23356 12632,23375 12623,23414 12617,23455 12613,23497 12611,23539 12607,23622 12607,23629 12609,23636 12611,23644 12615,23651 12619,23659 12624,23667 12637,23683 12667,23720 12683,23740 12700,23763 12926,23265 13212,23239 13889,22618 13289,22212 Z M 11437,10913 L 11373,11315 11422,11374 11472,11427 11525,11476 11580,11519 11636,11559 11693,11594 11813,11656 11938,11708 12066,11755 12332,11843 12446,11099 12386,11065 12325,11037 12263,11014 12202,10996 12140,10981 12077,10971 11951,10957 11696,10943 11567,10932 11437,10913 Z M 4355,28031 L 3394,29324 3846,29531 4698,28214 4355,28031 Z M 3936,27599 L 4363,27831 4847,27197 4899,27114 4947,27030 4990,26942 5027,26851 5058,26756 5081,26657 5095,26554 5101,26445 4889,26356 3936,27599 Z M -3238,8448 L -3351,8404 -3466,8366 -3578,8335 -3687,8312 -3789,8296 -3882,8290 -3925,8290 -3964,8292 -4000,8296 -4032,8303 -4192,9014 -3551,9389 -3238,8448 Z M 10151,22257 L 10182,22271 10209,22280 10233,22285 10255,22287 10264,22287 10273,22285 10282,22284 10290,22281 10297,22278 10304,22274 10310,22270 10316,22266 10327,22255 10336,22243 10344,22230 10351,22216 10377,22160 11292,20394 11299,20379 11305,20363 11310,20347 11314,20330 11332,20259 10888,19913 10562,20188 10940,20527 10151,22257 Z M 8708,13833 L 8531,13157 7595,13273 8120,14172 8708,13833 Z M 9601,10308 L 9790,10377 9862,11004 10297,10934 10190,9693 9537,9769 9601,10308 Z M 17306,18654 L 16831,19350 17528,19888 17916,19209 17306,18654 Z M 3246,5232 L 3466,5311 3677,5153 3680,5063 3676,4977 3670,4936 3663,4896 3653,4857 3641,4818 3627,4781 3611,4744 3592,4708 3571,4673 3548,4639 3523,4605 3465,4540 3330,4396 3197,4244 2918,3919 2623,4629 3155,4847 3246,5232 Z M 5338,14730 L 5840,14019 5605,13888 5431,14037 5093,13775 5093,12797 4854,12822 5005,14434 5338,14730 Z M -2211,28097 L -2475,26559 -2526,26552 -3125,27594 -2211,28097 Z M 13076,1553 L 13050,1467 13018,1387 12981,1310 12940,1238 12895,1168 12846,1102 12742,975 12523,734 12417,611 12321,482 12266,495 12010,1553 13076,1553 Z M -119,25773 L 1051,26426 1354,26010 143,25376 -119,25773 Z M 5217,13739 L 5438,13892 6100,12939 6048,12897 5996,12860 5943,12828 5890,12801 5837,12779 5783,12761 5729,12748 5674,12739 5619,12733 5563,12732 5507,12735 5450,12741 5393,12750 5335,12762 5217,12796 5217,13739 Z M 6756,11494 L 6863,12797 7385,12715 7242,11452 6756,11494 Z M -362,5772 L -281,5731 -209,5685 -146,5633 -90,5578 -40,5518 4,5454 43,5388 79,5319 141,5175 199,5028 260,4880 329,4737 0,4613 -785,5253 -362,5772 Z M 18713,19733 L 18007,19277 17620,19958 18248,20436 18713,19733 Z M -1810,22785 L -2329,23947 -1885,24183 -1338,22979 -1810,22785 Z M 6223,11533 L 6215,11601 6212,11668 6217,11801 6243,12063 6248,12191 6244,12254 6236,12317 6222,12380 6200,12442 6171,12503 6132,12564 6268,12878 6752,12806 6642,11498 6223,11533 Z M -662,11821 L -731,10711 -1361,10780 -1247,11791 -662,11821 Z M 13894,24151 L 13562,23773 13399,23592 13235,23416 13225,23407 13215,23400 13203,23393 13190,23387 13177,23382 13162,23378 13132,23370 13066,23358 13032,23351 12999,23342 12807,23823 13483,24536 13894,24151 Z M 5352,9911 L 5236,8989 5107,8981 5003,8979 4918,8982 4881,8987 4847,8994 4815,9002 4784,9013 4753,9027 4723,9044 4658,9085 4585,9139 4658,9977 5352,9911 Z M 11200,25526 L 11354,25523 11431,25523 11469,25524 11507,25527 11562,25534 11614,25543 11661,25555 11704,25570 11743,25588 11778,25608 11810,25632 11838,25659 11863,25690 11884,25724 11901,25761 11916,25802 11927,25847 11936,25895 11941,25948 11944,26004 11944,26445 12123,26655 12134,26640 12144,26621 12164,26573 12181,26512 12196,26441 12219,26274 12234,26084 12238,25884 12233,25687 12216,25505 12204,25425 12189,25353 10992,25353 10812,25703 10947,25768 11200,25526 Z M -3282,10960 L -3284,11130 -3279,11299 -3267,11465 -3248,11630 -3196,11958 -3127,12286 -2728,12196 -2812,10908 -3282,10960 Z M 15397,10592 L 16301,9992 16106,9552 15162,9910 15397,10592 Z M 3840,3492 L 4089,4647 4726,3549 4731,3538 4735,3527 4738,3515 4740,3502 4741,3489 4741,3475 4740,3446 4735,3383 4732,3348 4731,3313 3840,3492 Z M 10162,9404 L 10082,8493 9380,8594 9501,9475 10162,9404 Z M 8969,5350 L 9124,6558 9461,6524 9693,5451 8969,5350 Z M 8730,11161 L 9735,11017 9699,10457 8684,10519 8730,11161 Z M 2475,8710 L 2085,8844 2189,10250 2623,10184 2475,8710 Z M 903,6829 L 1117,6044 515,5825 403,6241 175,6437 571,6922 903,6829 Z M 1781,23730 L 2190,22808 1506,22508 1436,22680 1409,22762 1388,22843 1373,22923 1365,23000 1365,23077 1372,23152 1388,23226 1413,23299 1448,23372 1492,23444 1547,23515 1613,23587 1691,23658 1781,23730 Z M 420,4177 L 3119,5187 3057,4916 584,4014 420,4177 Z M 4800,28257 L 3946,29580 4187,29679 5275,28490 4800,28257 Z M -3221,9975 L -3288,10835 -2817,10801 -2702,10676 -2610,10569 -2539,10473 -2512,10429 -2489,10385 -2471,10341 -2457,10296 -2449,10250 -2444,10202 -2444,10152 -2448,10097 -2468,9975 -3221,9975 Z M 1336,18307 L 2891,19116 2993,19000 2442,18687 2197,17866 1336,18307 Z M 3353,5393 L 1608,4739 1517,5071 3009,5641 3353,5393 Z M 3651,20191 L 3074,21129 3658,21393 4073,20408 3651,20191 Z M -3840,10859 L -3940,12084 -3669,12195 -3737,10111 -4568,10270 -4557,10308 -4551,10324 -4544,10338 -4536,10351 -4527,10361 -4518,10371 -4509,10379 -4499,10385 -4489,10391 -4478,10395 -4467,10399 -4443,10403 -4419,10404 -4319,10399 -4294,10400 -4271,10402 -4259,10404 -4249,10408 -4238,10412 -4228,10417 -3840,10859 Z M 13520,21385 L 14080,20596 13533,20267 13014,21002 13520,21385 Z M 5800,19816 L 6617,19703 6641,19642 6559,19589 6484,19531 6417,19467 6355,19400 6299,19328 6246,19253 6152,19096 5975,18770 5880,18610 5827,18533 5770,18459 5561,18629 5621,18693 5669,18759 5707,18827 5735,18897 5755,18969 5768,19042 5776,19116 5780,19191 5775,19501 5779,19658 5787,19737 5800,19816 Z M -2253,28800 L -3413,28103 -3633,28490 -2492,29159 -2253,28800 Z M 8791,1590 L 9176,1675 9245,378 8791,237 8791,1590 Z M 8676,9559 L 9386,9483 9269,8601 8676,8677 8676,9559 Z M 11317,10800 L 11337,10708 11350,10619 11355,10531 11353,10443 11344,10356 11329,10268 11308,10179 11282,10088 10368,10433 10420,10923 11317,10800 Z M 10646,28394 L 11675,29370 12009,29211 10969,28090 10646,28394 Z M 8307,11630 L 7899,11675 7927,12275 7528,12318 7563,12693 8424,12570 8307,11630 Z M 8677,19246 L 8573,18716 7884,18716 7884,19626 8677,19246 Z M 6868,28496 L 5696,27939 5696,28492 6586,28913 6868,28496 Z M 10111,4136 L 10111,5082 10852,4707 10884,4186 10111,4136 Z M 4712,5482 L 4790,6263 5589,6263 5524,5640 4712,5482 Z M 10573,25914 L 10792,25470 9808,25220 9784,25258 9763,25296 9745,25334 9729,25372 9715,25410 9704,25448 9688,25524 9678,25602 9674,25680 9674,25761 9677,25843 10573,25914 Z M 18045,22986 L 18570,22061 18026,21874 17578,22715 18045,22986 Z M -382,1451 L -1584,894 -1682,1381 -507,1795 -382,1451 Z M 11302,10914 L 10418,11038 10473,11554 10818,11850 10990,11642 11073,11540 11150,11435 11184,11379 11215,11322 11242,11263 11265,11200 11283,11135 11295,11065 11302,10992 11302,10914 Z M -711,12161 L -751,12141 -790,12124 -829,12110 -866,12099 -904,12091 -941,12086 -977,12083 -1014,12083 -1050,12085 -1086,12089 -1158,12104 -1230,12125 -1304,12151 -1661,12878 -1094,13069 -711,12161 Z M -1194,26052 L -1671,26796 -1187,27139 -675,26387 -1194,26052 Z M 17803,25838 L 18270,25180 17717,24808 17253,25472 17803,25838 Z M 15637,24117 L 15587,24159 15712,24690 16019,24790 16154,24838 16219,24863 16282,24891 16347,24923 16410,24958 16537,25033 16795,25193 16975,24910 15637,24117 Z M 9515,21943 L 9558,21900 9159,20916 8772,21000 8519,21442 9515,21943 Z M -3331,417 L -3539,963 -2539,1181 -2437,697 -3331,417 Z M 15845,25403 L 16371,25844 16740,25282 16677,25253 16616,25221 16500,25149 16274,24999 16217,24966 16158,24937 16097,24911 16034,24891 15969,24877 15900,24870 15827,24871 15751,24881 15845,25403 Z M 6946,25529 L 7151,24815 6455,24654 6291,25407 6946,25529 Z M 17270,17316 L 17841,16388 17206,16310 16860,17053 17270,17316 Z M 17187,25561 L 16754,26176 17259,26603 17740,25931 17187,25561 Z M 7684,20774 L 8020,20767 8347,20751 8509,20735 8671,20712 8834,20681 8998,20639 8602,20091 7740,20549 7684,20774 Z M 14060,22621 L 15027,23632 15323,23198 14219,22448 14060,22621 Z M -4651,19871 L -4660,19948 -4662,20019 -4661,20053 -4658,20086 -4653,20117 -4647,20148 -4639,20177 -4630,20206 -4619,20234 -4607,20261 -4579,20313 -4545,20364 -4489,20445 -4437,20528 -4391,20613 -4351,20701 -4318,20791 -4294,20884 -4279,20981 -4275,21031 -4273,21082 -4273,21085 -4272,21089 -4271,21092 -4269,21096 -4267,21100 -4264,21104 -4257,21113 -4238,21137 -4213,21171 -3795,20211 -4651,19871 Z M 6598,19819 L 5788,19936 5788,20407 6451,20582 6507,20496 6531,20453 6552,20409 6571,20365 6587,20320 6600,20275 6611,20229 6619,20181 6624,20133 6627,20084 6627,20034 6624,19982 6618,19929 6598,19819 Z M 987,6910 L 655,7032 830,7220 2003,6368 1228,6087 987,6910 Z M -4494,10534 L -4251,11988 -4053,12042 -3947,10901 -4272,10534 -4494,10534 Z M 2905,11857 L 3011,12883 3478,12883 3389,11810 2905,11857 Z M 17361,10191 L 17275,9651 16442,10052 16717,10684 17361,10191 Z M 4670,18696 L 4539,18895 4827,19317 4516,19815 4383,19748 4327,19720 4275,19692 3338,19183 3277,19151 3262,19144 3246,19138 3231,19134 3215,19132 3200,19132 3192,19133 3184,19134 3176,19136 3169,19139 3161,19143 3153,19148 3137,19160 3122,19176 3106,19196 3091,19220 4752,20083 4984,19211 4670,18696 Z M 619,20438 L 585,20519 724,20590 792,20627 826,20647 858,20668 1023,20782 1062,20813 1097,20846 1114,20864 1129,20882 1143,20901 1156,20920 1183,20962 1212,21000 1243,21035 1275,21068 1309,21097 1345,21124 1381,21148 1419,21170 1499,21209 1584,21242 1673,21270 1766,21296 1998,20763 1521,20544 1463,20576 1405,20600 1347,20616 1290,20626 1234,20629 1177,20626 1121,20619 1065,20607 953,20573 842,20531 619,20438 Z M 5828,25840 L 5103,25704 4949,26249 5677,26597 5828,25840 Z M 13251,11366 L 12557,11116 12444,11896 12961,12090 13251,11366 Z M -3176,27691 L -3354,28010 -2209,28698 -2180,28669 -2157,28640 -2141,28611 -2130,28582 -2124,28554 -2123,28526 -2124,28498 -2128,28471 -2157,28359 -2163,28331 -2167,28303 -2169,28275 -2168,28246 -3176,27691 Z M 1561,12005 L 1453,12744 2091,13054 2013,11949 1561,12005 Z M 1922,21386 L 2670,21729 2915,21179 2173,20842 1922,21386 Z M 15221,14867 L 15054,14323 14511,14495 14202,15170 14243,15213 15221,14867 Z M 2800,15702 L 1550,16558 1770,16908 2955,15870 2800,15702 Z M 14034,19558 L 13596,20179 14151,20504 14590,19918 14034,19558 Z M 14552,17333 L 14632,17112 13463,16511 13261,16963 14552,17333 Z M -1179,4962 L -1562,4344 -1783,4344 -2038,5393 -1991,5415 -1179,4962 Z M 11614,15785 L 11667,15836 11715,15889 11802,16001 11957,16232 12038,16342 12082,16394 12130,16443 12182,16489 12239,16531 12302,16568 12371,16600 12399,16525 12420,16451 12435,16380 12443,16310 12446,16241 12443,16174 12435,16108 12423,16043 12406,15978 12385,15915 12333,15789 12269,15665 12196,15540 11614,15785 Z M -2968,20536 L -3690,20252 -4067,21114 -2968,20738 -2968,20536 Z M 7103,9723 L 6983,8875 6428,8924 6549,9783 7103,9723 Z M -4300,12283 L -4911,13096 -4258,13423 -4089,12351 -4300,12283 Z M 2292,17817 L 2318,17875 2340,17934 2375,18055 2435,18300 2454,18360 2475,18419 2501,18477 2531,18532 2567,18586 2609,18637 2659,18686 2718,18732 3142,18161 2588,17669 2292,17817 Z M 12720,7607 L 12458,6299 12071,6335 12441,7720 12720,7607 Z M 4795,26298 L 4457,26142 3618,27405 3845,27534 4795,26298 Z M -2563,16457 L -2041,16694 -1681,15894 -2130,15677 -2563,16457 Z M -511,20407 L -712,20321 -1116,21225 -637,21437 -394,20911 -511,20407 Z M -2963,20420 L -3029,19435 -3256,19254 -3644,20148 -2963,20420 Z M 4071,14225 L 4129,14198 4005,13019 3605,13019 3690,14026 4071,14225 Z M 17773,27967 L 17111,28838 17357,29123 18125,28267 17773,27967 Z M 5541,11573 L 5117,11612 5208,12661 5654,12609 5541,11573 Z M 6195,12997 L 5991,13300 6176,13617 7079,13307 6792,12926 6195,12997 Z M -2814,16661 L -2696,17993 -2635,18006 -2162,16961 -2814,16661 Z M 10355,10319 L 11283,9965 11122,9594 10307,9687 10355,10319 Z M 16654,9228 L 16070,8273 15783,8483 16177,9407 16654,9228 Z M 10409,28379 L 9741,28155 9392,29082 9391,29085 9390,29088 9390,29091 9390,29094 9390,29101 9391,29109 9393,29117 9396,29125 9403,29143 9423,29188 9434,29214 9445,29243 10409,28379 Z M 17313,27674 L 16715,28507 17018,28777 17681,27906 17313,27674 Z M 1494,4696 L 355,4269 386,4331 76,4520 1396,5024 1494,4696 Z M 3881,11791 L 3498,11791 3597,12899 3990,12880 3881,11791 Z M 9177,22505 L 9760,22757 10000,22309 8889,21752 8832,21831 8850,21863 8872,21892 8897,21917 8925,21939 8955,21959 8986,21978 9053,22012 9121,22045 9187,22082 9219,22104 9248,22128 9275,22155 9300,22185 9177,22505 Z M -2920,15293 L -2843,16322 -2658,16401 -2231,15624 -2920,15293 Z M 5115,2919 L 4842,1373 4502,1389 4925,2978 5115,2919 Z M 5460,9897 L 5923,9848 5828,8942 5353,8982 5460,9897 Z M -608,13234 L -169,12333 -601,12183 -987,13105 -608,13234 Z M 240,12139 L 233,12183 1295,12665 1322,12627 1345,12588 1365,12550 1381,12511 1393,12472 1403,12433 1410,12394 1415,12354 1417,12273 1413,12191 1392,12019 240,12139 Z M 17221,27617 L 16842,27375 16711,27563 16580,27743 16457,27920 16401,28009 16351,28100 16628,28431 17221,27617 Z M 17771,27039 L 18117,27331 18672,26555 18301,26311 17771,27039 Z M 18886,16009 L 18396,15713 18012,16331 18496,16627 18886,16009 Z M 7873,11541 L 8294,11514 8228,10564 7786,10602 7873,11541 Z M 8177,9611 L 8177,8889 7615,8889 7694,9664 8177,9611 Z M 7344,18692 L 7426,19208 7468,19464 7498,19720 7509,19975 7503,20102 7490,20229 7467,20356 7434,20483 7389,20609 7331,20736 7390,20757 7401,20761 7410,20763 7414,20764 7419,20765 7423,20765 7427,20765 7431,20765 7435,20764 7439,20764 7443,20763 7450,20760 7457,20758 7470,20752 7476,20749 7481,20747 7530,20622 7572,20496 7606,20370 7633,20244 7669,19989 7686,19733 7678,18692 7344,18692 Z M 16817,27225 L 17152,26752 16646,26324 16266,26870 16817,27225 Z M 12776,17578 L 13041,16990 12432,16748 12188,17315 12776,17578 Z M 9851,11121 L 9893,11536 10180,11587 10408,12234 10741,11942 10376,11632 10298,11054 9851,11121 Z M 16961,7621 L 17248,8353 17739,8053 17315,7360 16961,7621 Z M 13617,18599 L 13217,18354 13250,18295 13683,18472 13786,18298 12961,17923 12961,18511 13479,18846 13617,18599 Z M 3026,13013 L 3026,13661 3571,13958 3487,13013 3026,13013 Z M -3179,21975 L -3140,21877 -3094,21784 -3001,21603 -2962,21510 -2947,21462 -2935,21412 -2927,21361 -2924,21307 -2925,21251 -2932,21192 -3910,21545 -3902,21603 -3179,21975 Z M 5650,11568 L 5770,12569 5864,12541 5943,12512 5977,12497 6008,12481 6034,12464 6058,12446 6078,12427 6096,12407 6110,12385 6121,12363 6129,12338 6135,12312 6138,12285 6139,12255 6131,12080 6118,11903 6084,11537 5650,11568 Z M 14202,11480 L 13879,10404 13829,10404 13469,11312 14202,11480 Z M 18857,11601 L 18447,12100 18800,12653 19181,12449 18857,11601 Z M 14684,17010 L 14951,15764 14748,15748 14269,16799 14684,17010 Z M 6935,28409 L 7460,27637 7081,27447 6557,28213 6935,28409 Z M 17839,27881 L 18545,28458 18838,28186 18092,27556 17839,27881 Z M 17687,26970 L 18208,26247 17829,25996 17345,26675 17687,26970 Z M 6414,6799 L 5824,6992 5813,6989 5802,6984 5781,6973 5762,6958 5744,6942 5676,6870 5659,6854 5642,6840 5624,6829 5614,6825 5604,6822 5594,6820 5584,6819 5573,6820 5561,6822 5550,6825 5537,6830 5524,6837 5511,6845 5511,7430 6500,7111 6414,6799 Z M 15692,12998 L 14850,13255 14991,13684 15832,13382 15692,12998 Z M 9295,23659 L 9708,22860 9287,22677 8941,23393 9295,23659 Z M 170,3811 L 502,3449 811,3069 957,2872 1098,2669 1234,2459 1364,2243 1345,2248 1324,2256 1275,2283 1218,2323 1153,2376 1005,2514 835,2692 651,2901 459,3133 72,3643 70,3646 68,3650 66,3653 64,3657 61,3665 59,3674 48,3714 170,3811 Z M 1759,13217 L 1347,14017 1635,14342 2066,13371 1759,13217 Z M -1468,12235 L -1513,12194 -2587,12476 -2539,12521 -2490,12560 -2440,12594 -2389,12624 -2338,12651 -2286,12674 -2182,12712 -1972,12773 -1868,12803 -1765,12839 -1468,12235 Z M 13862,15357 L 13311,15201 13166,15720 13389,16165 13413,16148 13430,16137 13436,16132 13442,16128 13444,16126 13446,16124 13448,16122 13449,16120 13862,15357 Z M 7486,27237 L 7107,27191 7126,27226 7143,27259 7169,27315 7181,27337 7187,27347 7193,27355 7199,27363 7206,27369 7213,27375 7220,27379 7461,27515 7492,27529 7525,27541 7559,27551 7594,27557 7630,27560 7668,27559 7708,27553 7749,27543 7862,26699 7863,26682 7863,26665 7862,26648 7860,26630 7849,26546 7598,26546 7486,27237 Z M 8178,27211 L 8295,26589 7993,26575 7857,27602 8316,27638 8368,27346 8178,27211 Z M 9222,24398 L 10237,22435 10088,22375 9075,24313 9222,24398 Z M -1758,26722 L -1278,25976 -1334,25960 -1389,25950 -1443,25944 -1495,25943 -1546,25945 -1596,25950 -1693,25969 -1884,26024 -1979,26051 -2077,26074 -2007,26560 -1758,26722 Z M 4861,20132 L 5657,20370 5657,19914 4980,19667 4861,20132 Z M 10793,4066 L 10775,3990 10754,3918 10730,3851 10702,3788 10672,3730 10638,3675 10601,3625 10560,3578 10516,3536 10468,3497 10416,3461 10361,3429 10302,3400 10239,3375 10172,3352 10101,3333 10101,4020 10793,4066 Z M 16146,26841 L 16565,26252 15922,25704 15880,25737 15930,26001 15975,26273 16004,26412 16040,26553 16086,26696 16146,26841 Z M 18329,12238 L 18051,12579 18141,13073 18601,12991 18621,12937 18637,12883 18647,12830 18652,12778 18652,12727 18648,12676 18638,12627 18623,12579 18604,12532 18579,12486 18550,12441 18515,12398 18476,12356 18432,12315 18383,12276 18329,12238 Z M 10505,26018 L 9639,25957 9587,26400 10281,26465 10505,26018 Z M 14335,24478 L 14946,23721 14750,23512 14096,24213 14335,24478 Z M 11744,24871 L 11255,24871 11192,25033 12229,25033 12266,24258 12218,24241 11744,24871 Z M 19099,17140 L 18530,16788 18244,17252 18839,17587 19099,17140 Z M 7863,18570 L 8552,18570 8442,17936 7969,18046 7863,18570 Z M 4495,4172 L 4593,4726 5066,4630 4804,3656 4495,4172 Z M 17550,21718 L 17110,22443 17472,22651 17528,22550 17588,22452 17710,22260 17764,22160 17811,22056 17830,22001 17846,21944 17858,21885 17866,21823 17550,21718 Z M 8607,27661 L 8786,26502 8454,26473 8292,27142 8481,27282 8440,27651 8607,27661 Z M -1994,19509 L -2311,19370 -2575,19480 -2506,20466 -2457,20470 -1994,19509 Z M 10192,8482 L 10283,9397 10878,9326 10816,9197 10737,9061 10647,8925 10550,8796 10452,8681 10356,8586 10311,8548 10268,8517 10228,8495 10209,8487 10192,8482 Z M 14491,17429 L 13205,17063 13104,17317 14401,17664 14491,17429 Z M 5181,19055 L 4999,19558 5654,19792 5654,19142 5181,19055 Z M 6435,9801 L 6315,8919 5947,8945 6032,9824 6435,9801 Z M -1132,25959 L -611,26291 -284,25807 -832,25501 -1132,25959 Z M -3604,12541 L -3983,12394 -4140,13407 -3829,13407 -3604,12541 Z M 10738,22881 L 11523,21382 11322,21316 10567,22781 10738,22881 Z M 14749,4446 L 15005,4802 15124,4964 15246,5116 15278,5159 15305,5203 15326,5248 15342,5295 15355,5342 15364,5391 15377,5489 15400,5688 15409,5737 15421,5786 15437,5833 15457,5880 15556,5881 15603,5880 15649,5879 15660,5878 15672,5876 15684,5872 15697,5869 15770,5846 15055,4403 14749,4446 Z M 12573,10210 L 12573,11000 12930,11126 12991,10176 12573,10210 Z M -4872,15407 L -4439,15591 -4286,14929 -4725,14645 -4872,15407 Z M 461,19390 L -168,19110 -398,19616 -348,19658 -299,19690 -250,19713 -202,19729 -154,19737 -106,19740 -58,19738 -11,19731 84,19709 178,19681 272,19655 320,19644 367,19637 461,19390 Z M 11774,26343 L 11807,26230 11828,26129 11838,26038 11838,25957 11828,25886 11820,25854 11809,25824 11796,25796 11781,25771 11764,25748 11745,25727 11724,25708 11701,25691 11677,25677 11651,25664 11593,25643 11530,25630 11462,25624 11388,25625 11311,25631 11230,25643 11033,25855 11774,26343 Z M 7257,24848 L 6959,25890 7310,25957 7528,24926 7257,24848 Z M 1280,12985 L 923,13723 1270,13927 1658,13169 1280,12985 Z M 18785,17684 L 18179,17342 17939,17743 18536,18121 18785,17684 Z M 17445,29190 L 17590,29377 18470,28548 18216,28332 17445,29190 Z M 15650,17476 L 16035,16066 15758,16027 15511,17232 15496,17304 15494,17323 15493,17341 15494,17359 15497,17377 15499,17385 15503,17393 15506,17401 15511,17409 15517,17417 15523,17424 15531,17431 15539,17437 15560,17449 15584,17460 15614,17469 15650,17476 Z M 3383,1985 L 2703,1694 2512,2210 3072,2362 3383,1985 Z M 16039,15961 L 16091,15801 16132,15643 16163,15486 16183,15330 16191,15173 16186,15016 16167,14857 16135,14695 15954,14773 15807,15887 16039,15961 Z M 2210,4489 L 2526,3606 2134,3643 1803,4332 2210,4489 Z M 1838,3999 L 890,3691 684,3933 1692,4300 1838,3999 Z M 7098,8885 L 7218,9720 7583,9662 7497,8885 7098,8885 Z M 15790,14634 L 15790,14085 15160,14294 15332,14818 15790,14634 Z M 2769,3572 L 3541,4466 3588,4445 3373,3507 2769,3572 Z M 15810,15192 L 15160,15325 15095,15697 15675,15859 15810,15192 Z M 13935,18054 L 14131,17707 13055,17419 12986,17600 13935,18054 Z M 15799,13514 L 15013,13796 15139,14176 15799,13967 15799,13514 Z M 8690,18672 L 8783,19195 9546,18831 9153,18506 8690,18672 Z M 9466,26381 L 9522,25986 9553,25724 9570,25593 9593,25464 9627,25338 9648,25277 9674,25217 9704,25158 9739,25100 9779,25045 9826,24991 9827,24990 9827,24989 9828,24988 9828,24987 9828,24985 9829,24983 9829,24980 9829,24977 9828,24970 9825,24953 9823,24943 9822,24932 9513,24841 9271,26363 9466,26381 Z M 14424,19114 L 14462,19045 14426,19006 14388,18971 14348,18939 14307,18910 14219,18857 14127,18811 13933,18727 13835,18683 13738,18634 13578,18913 14450,19484 14532,19298 14082,19100 14106,19035 14424,19114 Z M 6406,16235 L 5715,15654 5706,15647 5696,15642 5685,15637 5674,15632 5651,15625 5626,15620 5574,15612 5548,15608 5523,15602 5490,15656 6073,16538 6406,16235 Z M 12034,6217 L 12433,6170 12317,5623 12289,5606 12262,5588 12211,5548 12111,5466 12085,5447 12058,5429 12030,5413 12000,5399 11968,5387 11934,5378 11897,5372 11858,5370 11859,5424 11862,5477 11875,5581 11896,5684 11922,5786 11981,5995 12010,6103 12034,6217 Z M 13217,25625 L 13142,25563 13070,25512 13034,25490 12998,25471 12962,25453 12924,25438 12885,25425 12844,25414 12755,25395 12654,25382 12537,25373 12537,25944 12593,25951 12648,25955 12700,25955 12750,25950 12798,25943 12844,25931 12888,25916 12931,25897 12971,25875 13011,25849 13048,25820 13085,25787 13120,25752 13153,25713 13186,25670 13217,25625 Z M 18144,17190 L 18436,16727 17951,16425 17658,16911 18144,17190 Z M 3530,27338 L 4359,26091 4172,26015 3366,27194 3530,27338 Z M 11357,21939 L 11866,22170 12120,21652 11625,21432 11357,21939 Z M 2731,24465 L 3275,24821 3603,24467 2912,24127 2731,24465 Z M 6590,15347 L 6956,15760 7372,15390 7062,15017 6590,15347 Z M 18445,21067 L 18116,20844 17713,21462 18193,21620 18445,21067 Z M 3242,6489 L 3870,6489 3843,6202 3471,6016 3408,5704 3361,5750 3323,5797 3294,5844 3273,5892 3258,5941 3248,5989 3243,6039 3242,6088 3253,6288 3254,6389 3250,6439 3242,6489 Z M 5564,28424 L 5564,27870 5165,27697 4906,28105 5564,28424 Z M 13149,1782 L 13141,1767 13134,1752 13119,1721 13112,1708 13109,1702 13105,1697 13102,1694 13100,1692 13098,1691 13096,1689 13095,1689 13093,1688 13091,1688 11976,1684 11932,1931 12090,1943 12246,1949 12400,1948 12553,1939 12703,1919 12853,1887 13001,1842 13149,1782 Z M 2897,11736 L 3370,11691 3363,11610 3360,11531 3356,11379 3350,11305 3339,11232 3330,11195 3318,11159 3304,11123 3287,11086 2827,11133 2897,11736 Z M 12579,9451 L 12579,10094 13000,10048 13039,9393 12579,9451 Z M 4262,14353 L 4545,14383 4444,13353 4154,13369 4262,14353 Z M 795,19717 L 757,19669 647,19695 537,19717 315,19760 205,19784 97,19815 -9,19853 -61,19876 -112,19902 -116,19968 554,20272 795,19717 Z M -4000,18218 L -3943,18237 -3887,18260 -3780,18311 -3570,18421 -3517,18444 -3463,18465 -3408,18481 -3351,18493 -3292,18499 -3231,18499 -3168,18491 -3101,18476 -3160,18042 -3792,18042 -4000,18218 Z M 2300,11811 L 2784,11751 2717,11145 2255,11199 2300,11811 Z M -1649,25330 L -2166,25450 -2093,25957 -1490,25805 -1649,25330 Z M 4843,6933 L 5055,7572 5390,7465 5358,6849 4843,6933 Z M 10836,22940 L 11345,23225 11591,22720 11049,22527 10836,22940 Z M 4827,8861 L 5196,8861 5334,8594 5161,8187 4827,8284 4827,8861 Z M 43,25326 L -528,25026 -765,25412 -217,25715 43,25326 Z M 939,15902 L 432,15652 222,16107 738,16357 939,15902 Z M -4329,13811 L -4710,14518 -4261,14805 -4192,14295 -4190,14234 -4193,14173 -4199,14113 -4212,14052 -4230,13992 -4255,13932 -4288,13872 -4329,13811 Z M 16218,26972 L 16204,27007 16194,27048 16186,27093 16182,27143 16181,27197 16183,27255 16196,27377 16219,27506 16252,27638 16294,27767 16345,27890 16753,27315 16218,26972 Z M 7156,10559 L 7093,10015 6584,10081 6655,10599 7156,10559 Z M -3559,9518 L -4221,9129 -4357,9746 -4214,9735 -4085,9720 -3968,9700 -3864,9675 -3771,9644 -3729,9627 -3689,9608 -3653,9588 -3619,9566 -3588,9543 -3559,9518 Z M 16811,17157 L 16535,17756 16871,17956 17208,17412 16811,17157 Z M 14859,19595 L 15314,18527 15130,18412 14686,19284 14859,19595 Z M -275,5879 L 96,6335 318,6172 384,5776 28,5643 -275,5879 Z M 7509,26400 L 8281,26473 8290,26409 7379,26166 7192,27053 7397,27097 7509,26400 Z M 17620,9953 L 18453,9332 18387,9311 18324,9299 18263,9294 18204,9297 18147,9305 18091,9319 17982,9355 17768,9441 17714,9459 17659,9474 17603,9484 17545,9489 17620,9953 Z M 4838,6815 L 5636,6684 5590,6420 4817,6420 4838,6815 Z M 3267,10430 L 2767,10478 2827,11017 3313,10957 3267,10430 Z M 1159,3362 L 1936,3459 1596,2750 1159,3362 Z M -871,25352 L -630,24969 -1190,24675 -1350,25081 -871,25352 Z M -4125,18360 L -4127,18437 -3381,18802 -3362,18830 -3345,18859 -3317,18921 -3291,18983 -3264,19044 -3248,19073 -3231,19101 -3210,19126 -3187,19150 -3159,19171 -3128,19189 -3091,19204 -3049,19215 -3099,18666 -3327,18608 -3429,18580 -3477,18565 -3525,18548 -3639,18501 -3752,18450 -3866,18399 -3980,18351 -3988,18348 -3996,18347 -4004,18346 -4013,18345 -4022,18345 -4031,18346 -4050,18348 -4088,18355 -4107,18358 -4125,18360 Z M 2240,11070 L 2700,11029 2650,10480 2214,10542 2240,11070 Z M 3118,18936 L 3591,18573 3230,18240 2826,18774 3118,18936 Z M 5094,12664 L 5004,11619 4774,11649 4850,12680 5094,12664 Z M 18736,21805 L 18988,21436 18537,21137 18300,21657 18736,21805 Z M 5523,11460 L 5456,10857 5055,10900 5115,11486 5523,11460 Z M 5555,10729 L 6006,10670 5940,10148 5495,10190 5555,10729 Z M 17597,17009 L 17368,17375 17836,17675 18081,17286 17597,17009 Z M -310,20154 L -255,20169 -201,20186 -99,20226 92,20318 184,20362 276,20400 323,20416 370,20429 419,20439 468,20445 495,20376 -195,20049 -253,19840 -460,19756 -657,20207 -429,20311 -310,20154 Z M 14261,24565 L 13998,24283 13587,24602 13922,24955 14261,24565 Z M 9081,9819 L 8690,9856 8690,10396 9127,10377 9081,9819 Z M 5124,8062 L 5024,7885 4492,8069 4575,8947 4641,8952 4662,8908 4677,8864 4688,8818 4695,8771 4701,8675 4702,8577 4703,8479 4706,8429 4712,8380 4722,8332 4736,8283 4755,8236 4780,8189 5124,8062 Z M -933,25442 L -1420,25173 -1552,25322 -1529,25355 -1509,25390 -1493,25427 -1480,25465 -1436,25625 -1423,25664 -1408,25703 -1390,25740 -1367,25775 -1339,25807 -1306,25838 -1266,25865 -1218,25888 -933,25442 Z M 17580,27118 L 17233,26832 16915,27284 17285,27520 17580,27118 Z M 8434,7954 L 8473,8386 8679,8553 8889,8518 8843,7927 8434,7954 Z M 171,16213 L 14,16572 106,16628 147,16652 187,16674 521,16828 685,16472 595,16418 554,16394 513,16372 171,16213 Z M 6892,22767 L 6616,22617 6373,22982 6507,23066 6637,23140 6762,23204 6881,23257 6992,23297 7044,23312 7094,23324 7140,23332 7184,23336 7225,23336 7263,23333 6804,23048 6892,22767 Z M -1365,14114 L -1579,14511 -1415,14581 -1229,14381 -765,14346 -900,14029 -1365,14114 Z M 3437,11067 L 3495,11675 3860,11635 3803,11035 3437,11067 Z M 12067,17594 L 12654,18184 12698,17664 12157,17426 12067,17594 Z M 11113,22425 L 11644,22617 11815,22271 11301,22043 11113,22425 Z M 9135,6685 L 9213,7213 9653,7193 9488,6640 9135,6685 Z M 6469,10104 L 6059,10126 6117,10669 6542,10610 6469,10104 Z M 16400,9938 L 16841,9733 16692,9332 16224,9516 16400,9938 Z M 3815,10058 L 4206,10032 4147,9381 3773,9622 3815,10058 Z M 6905,8299 L 6374,8448 6416,8769 6966,8769 6905,8299 Z M 16760,17003 L 17089,16295 16845,16276 16418,16813 16760,17003 Z M 7735,11296 L 7669,10627 7350,10648 7420,11329 7735,11296 Z M 11858,6233 L 11682,5589 11218,6315 11858,6233 Z M 2516,4595 L 2835,3826 2642,3605 2318,4525 2516,4595 Z M 2467,24515 L 1743,24001 1574,24213 2365,24668 2467,24515 Z M 5053,10780 L 5448,10729 5375,10200 5008,10250 5053,10780 Z M 4471,19679 L 4699,19305 4451,18992 4107,19472 4471,19679 Z M 17090,25506 L 16829,25348 16456,25922 16677,26094 17090,25506 Z M 3849,14235 L 3536,14789 3733,14745 3830,14720 3927,14690 4024,14655 4121,14613 4219,14564 4320,14506 3849,14235 Z M 7755,17929 L 8087,17627 7650,17280 7510,17840 7755,17929 Z M 4228,10336 L 3848,10363 3901,10900 4256,10854 4228,10336 Z M 13749,21559 L 14273,21925 14353,21770 14020,21456 14259,20969 14196,20933 13749,21559 Z M 17662,27190 L 17388,27586 17749,27810 18005,27484 17662,27190 Z M 10063,23756 L 9645,24563 10002,24682 9990,24618 9984,24557 9983,24498 9987,24442 9995,24387 10007,24333 10022,24281 10039,24230 10082,24131 10130,24034 10227,23840 10063,23756 Z M -704,14955 L -673,14485 -1185,14485 -1300,14658 -704,14955 Z M 4651,5009 L 5424,5155 5441,5115 5089,4746 4607,4844 4651,5009 Z M 3427,10953 L 3791,10898 3724,10386 3392,10410 3427,10953 Z M 9234,16944 L 8972,17191 9302,17584 9575,17317 9234,16944 Z M 6519,6751 L 6622,7076 7116,6906 7026,6568 6519,6751 Z M 5529,20916 L 5620,20663 4794,20417 4738,20534 5529,20916 Z M 7281,10006 L 7347,10536 7659,10495 7604,9967 7281,10006 Z M 16733,16240 L 16316,16138 16170,16681 16327,16747 16733,16240 Z M -2276,19149 L -2379,18947 -2416,18884 -2434,18860 -2450,18841 -2467,18825 -2485,18813 -2504,18803 -2524,18795 -2547,18789 -2572,18785 -2633,18776 -2578,19339 -2300,19262 -1950,19388 -1925,19332 -2276,19149 Z M 16546,17464 L 16039,17186 15930,17523 16429,17705 16546,17464 Z M 7481,17966 L 7360,18546 7685,18546 7774,18054 7481,17966 Z M 14139,22390 L 13508,21940 13373,22131 13971,22538 14139,22390 Z M 8279,24271 L 8195,24332 8157,24364 8123,24397 8091,24431 8062,24466 8037,24502 8014,24540 7994,24579 7977,24619 7962,24661 7951,24705 7942,24750 7937,24797 7933,24846 7933,24896 8091,24934 8438,24344 8279,24271 Z M 7183,24708 L 7274,24356 6968,24198 6699,24586 7183,24708 Z M 6178,24569 L 5996,25648 5996,25650 5996,25651 5997,25653 5997,25654 5998,25656 5999,25658 6002,25662 6006,25666 6011,25670 6023,25681 6055,25708 6098,25746 6346,24637 6178,24569 Z M 15948,6213 L 15827,5974 15446,6015 15511,6515 15948,6213 Z M 14142,21430 L 14429,21664 14673,21245 14377,21038 14142,21430 Z M 16704,17100 L 16138,16802 16069,17080 16597,17357 16704,17100 Z M 8445,12682 L 7967,12756 8089,13104 8511,13036 8445,12682 Z M 19019,15359 L 18776,15241 18529,15584 18985,15849 19019,15359 Z M 1011,3542 L 997,3610 1890,3898 1994,3642 1737,3616 1490,3584 1249,3556 1130,3547 1011,3542 Z M 8689,23969 L 8809,23758 8353,23492 8167,23835 8689,23969 Z M 9907,11684 L 9906,11739 9908,11792 9914,11844 9924,11894 9936,11943 9951,11991 9988,12085 10175,12480 10319,12338 10103,11684 9907,11684 Z M 12923,20935 L 13128,20640 12739,20364 12549,20641 12923,20935 Z M 8568,25060 L 8585,24978 8604,24898 8644,24743 8657,24667 8662,24629 8663,24591 8663,24553 8659,24515 8652,24477 8642,24438 8578,24413 8279,24755 8296,24988 8568,25060 Z M 6729,23502 L 6191,23243 6002,23520 6418,23676 6729,23502 Z M 15836,13042 L 15905,13013 15531,11904 15481,11907 15390,12084 15836,13042 Z M 14610,17463 L 14532,17708 14929,17801 14977,17806 15026,17807 15074,17802 15124,17792 15173,17775 15223,17750 15274,17716 15326,17673 14610,17463 Z M 10294,23722 L 10678,22995 10505,22901 10127,23632 10294,23722 Z M 17399,8701 L 17926,8355 17779,8157 17287,8466 17399,8701 Z M 16809,9292 L 16951,9680 17265,9530 17188,9148 16809,9292 Z M 8627,17486 L 9036,17821 9225,17683 8965,17358 8956,17347 8946,17336 8923,17316 8869,17267 8627,17486 Z M 7852,24051 L 7796,24218 7754,24364 7725,24489 7716,24544 7711,24596 7708,24643 7710,24685 7714,24724 7723,24760 7734,24791 7750,24820 7769,24845 7791,24868 7842,24683 7872,24594 7909,24508 7930,24466 7955,24426 7982,24387 8012,24350 8046,24314 8084,24279 8126,24247 8172,24216 7852,24051 Z M 6837,25866 L 6906,25637 6265,25517 6253,25741 6837,25866 Z M 7194,29244 L 6602,29095 6296,29443 6412,29571 6453,29525 6495,29482 6538,29443 6582,29408 6627,29376 6673,29347 6720,29323 6768,29301 6817,29283 6867,29268 6919,29256 6971,29248 7025,29242 7080,29240 7136,29240 7194,29244 Z M 15465,11701 L 15295,11219 15049,11332 15325,11934 15465,11701 Z M 14229,15399 L 14219,15441 14688,15580 14852,15288 14909,15269 14937,15259 14950,15253 14963,15247 14976,15240 14989,15233 15014,15217 15063,15183 15043,15136 14229,15399 Z M 7426,11448 L 7488,11918 7790,11856 7747,11428 7426,11448 Z M 9252,8478 L 9174,7874 8954,7919 9006,8507 9252,8478 Z M 6393,29024 L 6309,28993 6230,28956 6077,28874 6001,28835 5923,28801 5884,28786 5844,28774 5802,28765 5760,28758 5718,28822 6162,29296 6393,29024 Z M 8914,25265 L 8848,25274 8832,25403 8811,25531 8768,25788 8752,25917 8744,26048 8747,26179 8754,26246 8765,26313 8809,26196 8845,26077 8873,25957 8897,25836 8970,25348 8970,25346 8970,25343 8970,25341 8970,25339 8968,25334 8966,25329 8963,25324 8959,25319 8951,25308 8932,25286 8922,25276 8914,25265 Z M 331,15601 L 73,15483 -137,15931 117,16056 331,15601 Z M 4026,15995 L 4214,15416 4167,15382 3655,15767 4026,15995 Z M 9193,9810 L 9246,10367 9491,10334 9418,9779 9193,9810 Z M 4997,11484 L 4943,10911 4722,10945 4775,11520 4997,11484 Z M 7439,13181 L 7387,12842 6919,12902 7196,13261 7439,13181 Z M 9184,22205 L 8767,21983 8642,22270 9056,22450 9184,22205 Z M 4786,25647 L 4532,26049 4848,26190 4984,25688 4786,25647 Z M 10846,25369 L 10873,25275 10051,25015 10047,25014 10044,25014 10036,25013 10029,25014 10020,25016 10012,25019 10004,25023 9986,25032 9950,25054 9932,25064 9914,25073 9926,25133 10846,25369 Z M -2993,25169 L -2633,25378 -2703,24752 -2751,24745 -2993,25169 Z M 4928,10773 L 4900,10260 4677,10283 4720,10815 4928,10773 Z M 67,16165 L -190,16039 -365,16398 -101,16528 67,16165 Z M 14902,13795 L 14839,13784 14607,14298 14650,14333 15017,14211 14902,13795 Z M 14706,17930 L 14703,17861 14248,17742 14094,18013 14122,18058 14706,17930 Z M 15211,15109 L 15242,15190 15792,15080 15792,14832 15712,14866 15633,14896 15478,14950 15405,14980 15336,15014 15302,15034 15271,15057 15240,15081 15211,15109 Z M 3534,5623 L 3566,5953 3836,6046 3738,5484 3534,5623 Z M 12035,2066 L 12311,2393 12596,2066 12035,2066 Z M -2352,23140 L -2291,23156 -2081,22666 -2389,22519 -2352,23140 Z M 7629,13155 L 7967,13097 7834,12760 7575,12827 7629,13155 Z M 5904,13922 L 6074,13684 5909,13405 5661,13779 5904,13922 Z M 8674,18559 L 9050,18420 8619,18076 8584,18107 8674,18559 Z M 7718,9978 L 7776,10479 7975,10452 7906,9927 7718,9978 Z M 9017,23601 L 8825,23998 9084,24053 9235,23762 9017,23601 Z M 6252,8479 L 5917,8597 5941,8822 6297,8802 6252,8479 Z M 2905,15650 L 3220,15949 3444,15775 3082,15556 2905,15650 Z M 14220,18738 L 14255,18695 14239,18668 14225,18640 14201,18580 14176,18520 14162,18491 14148,18463 14130,18436 14111,18412 14088,18389 14062,18370 14031,18354 13995,18342 13955,18334 13908,18331 13801,18542 14220,18738 Z M 15302,17544 L 15331,17472 14754,17176 14675,17366 15302,17544 Z M -3494,13550 L -3536,12890 -3578,12887 -3721,13435 -3494,13550 Z M 8068,9933 L 8056,10044 8051,10135 8051,10175 8053,10211 8057,10243 8064,10273 8072,10299 8083,10323 8096,10345 8112,10365 8130,10383 8151,10400 8175,10416 8201,10432 8201,9921 8068,9933 Z M -1043,19768 L -1075,19736 -1112,19705 -1156,19673 -1204,19643 -1311,19584 -1426,19531 -1544,19488 -1657,19456 -1710,19446 -1759,19439 -1804,19437 -1843,19440 -1638,19541 -1440,19633 -1342,19674 -1244,19710 -1144,19742 -1043,19768 Z M 3671,9730 L 3614,9773 3560,9811 3508,9848 3462,9885 3441,9906 3422,9927 3405,9950 3391,9975 3378,10003 3369,10033 3362,10066 3359,10103 3689,10085 3671,9730 Z M -2464,573 L -2605,483 -2737,409 -2861,350 -2974,308 -3026,294 -3076,283 -3123,276 -3166,274 -3206,276 -3243,282 -3276,292 -3292,299 -3306,307 -2464,573 Z M 17975,11918 L 17935,11943 18027,12431 18253,12149 17975,11918 Z M 4435,25985 L 4662,25613 4471,25587 4249,25913 4435,25985 Z M -2571,25646 L -2605,25631 -2639,25618 -2673,25607 -2705,25599 -2738,25592 -2770,25588 -2834,25583 -2898,25585 -2963,25590 -3095,25610 -3009,25677 -2937,25726 -2905,25743 -2876,25756 -2847,25765 -2820,25769 -2807,25769 -2793,25769 -2767,25764 -2739,25755 -2710,25742 -2679,25724 -2646,25702 -2571,25646 Z M 5576,7942 L 5492,7739 5162,7852 5248,8031 5576,7942 Z M 4162,4739 L 4192,4792 4466,4734 4424,4409 4370,4398 4162,4739 Z M 7843,23652 L 7724,23562 7664,23520 7602,23482 7570,23465 7537,23450 7503,23437 7469,23426 7433,23418 7396,23413 7358,23411 7318,23413 7376,23461 7435,23506 7496,23545 7560,23580 7626,23609 7660,23621 7695,23631 7731,23639 7767,23645 7805,23650 7843,23652 Z M 8899,25169 L 8927,25142 8952,25113 8974,25083 8993,25051 9010,25017 9024,24982 9036,24946 9045,24909 9050,24872 9053,24834 9053,24795 9051,24757 9045,24719 9036,24681 9025,24643 9010,24606 8980,24674 8955,24741 8934,24808 8919,24876 8908,24945 8901,25016 8898,25091 8899,25169 Z M 5357,8780 L 5370,8851 5823,8821 5775,8630 5357,8780 Z M 7797,11994 L 7482,12035 7532,12176 7797,12176 7797,11994 Z M 5486,18705 L 5307,18960 5638,19019 5661,18969 5486,18705 Z M 15347,18404 L 15467,18008 15433,18014 15403,18022 15376,18033 15353,18045 15333,18060 15315,18076 15299,18093 15285,18112 15273,18132 15262,18153 15243,18197 15224,18242 15204,18287 15347,18404 Z M -2864,22126 L -2885,21735 -2941,21730 -3070,22019 -2864,22126 Z M -973,20054 L -928,20007 -887,19958 -850,19904 -818,19845 -790,19781 -768,19711 -751,19634 -739,19549 -771,19578 -800,19608 -825,19639 -848,19669 -867,19700 -885,19732 -899,19763 -912,19795 -933,19859 -949,19924 -973,20054 Z M -3412,25937 L -3053,25845 -3053,25832 -3052,25820 -3051,25794 -3270,25669 -3412,25937 Z M -3144,25462 L -2786,25462 -2779,25427 -3041,25276 -3144,25462 Z M 8867,24571 L 8799,24557 8761,24681 8745,24744 8731,24807 8720,24870 8714,24935 8712,25000 8716,25067 8766,25077 8867,24571 Z M 10995,4311 L 10995,4652 11241,4540 10995,4311 Z M 711,7657 L 480,7846 513,7904 768,7869 711,7657 Z M 12528,26224 L 12743,26091 12719,26057 12522,26112 12528,26224 Z M 14971,15673 L 15022,15390 14956,15365 14818,15585 14971,15673 Z M 8644,24066 L 8718,24131 8756,24161 8775,24174 8796,24186 8816,24195 8838,24202 8861,24206 8885,24207 8910,24204 8936,24197 8964,24186 8993,24170 8644,24066 Z M 17788,18870 L 17743,18917 17980,19072 18024,19001 17788,18870 Z M -738,23278 L -654,23064 -725,23034 -744,23041 -760,23049 -775,23059 -787,23069 -792,23074 -796,23080 -801,23086 -804,23092 -807,23099 -809,23106 -811,23113 -812,23120 -812,23128 -812,23136 -809,23152 -804,23170 -797,23189 -786,23210 -773,23231 -757,23254 -738,23278 Z M 4477,4975 L 4483,4881 4235,4892 4231,4944 4477,4975 Z M 516,19604 L 729,19544 723,19506 572,19456 516,19604 Z M 14216,18338 L 14304,18505 14386,18322 14216,18338 Z M 11896,17337 L 11851,17397 11964,17515 12026,17376 11896,17337 Z M 14644,19453 L 14573,19486 14668,19633 14714,19608 14644,19453 Z M 15458,17533 L 15441,17707 15590,17621 15458,17533 Z M 6070,12764 L 6059,12721 6052,12686 6048,12673 6046,12667 6044,12662 6042,12658 6040,12655 6038,12653 6037,12652 6036,12651 6034,12650 6029,12648 6024,12647 6019,12646 6013,12645 6008,12645 6002,12646 5990,12647 5965,12651 5952,12653 5940,12655 5934,12689 6070,12764 Z M 8136,17832 L 8152,17888 8296,17832 8279,17785 8136,17832 Z M 7352,29306 L 7450,29306 7445,29299 7444,29297 7443,29296 7442,29295 7442,29295 7441,29294 7441,29294 7441,29294 7440,29294 7440,29294 7435,29294 7429,29295 7414,29297 7352,29306 Z"/>
   </g>
  </g>
 </g>
</svg>