<svg xmlns="http://www.w3.org/2000/svg" width="36.22" height="30.667" viewBox="0 0 36.22 30.667"><path d="M1584.951,214.835a1.69,1.69,0,0,0-2.268-.756l-2.529,1.264-2.692-4.038a3.865,3.865,0,1,0-4.031-.327l-6.2,3.1a1.689,1.689,0,0,0-.756.756l-1.932,3.863a1.69,1.69,0,1,0,3.024,1.512l1.679-3.359,3.247-1.623-2.186,5.464-3.519,7.039-5.13,1.711a1.69,1.69,0,1,0,1.068,3.207l5.8-1.932a1.689,1.689,0,0,0,.978-.848l3.007-6.014,3.828,2.552,3.663,7.326a1.69,1.69,0,0,0,3.024-1.512l-3.864-7.727a1.692,1.692,0,0,0-.575-.65l-4.654-3.1,2.161-5.4,2.081,3.121a1.689,1.689,0,0,0,2.162.574l3.864-1.932A1.69,1.69,0,0,0,1584.951,214.835Z" transform="translate(-1548.909 -204)" fill="#a9c2d9"/><path d="M1550.191,219.881h5.8a1.69,1.69,0,0,0,0-3.381h-5.8a1.69,1.69,0,1,0,0,3.381Z" transform="translate(-1542.705 -210.463)" fill="#a9c2d9"/><path d="M1547.608,230.19a1.69,1.69,0,0,0-1.69-1.69h-7.727a1.69,1.69,0,1,0,0,3.381h7.727A1.69,1.69,0,0,0,1547.608,230.19Z" transform="translate(-1536.5 -216.668)" fill="#a9c2d9"/><path d="M1555.744,242.19a1.69,1.69,0,0,0-1.69-1.69h-3.863a1.69,1.69,0,1,0,0,3.381h3.863A1.69,1.69,0,0,0,1555.744,242.19Z" transform="translate(-1542.705 -222.873)" fill="#a9c2d9"/></svg>