<svg xmlns="http://www.w3.org/2000/svg" width="39.087" height="59.175" viewBox="0 0 39.087 59.175"><ellipse cx="13.154" cy="1.644" rx="13.154" ry="1.644" transform="translate(6.39 55.887)" fill="#d2d1d1"/><path d="M754.6,18.49a20.1,20.1,0,0,0-1.586-1.56,19.792,19.792,0,0,0-26.038,0,20.11,20.11,0,0,0-1.586,1.56,19.587,19.587,0,0,0-2.334,22.794l15.582,27.538a1.559,1.559,0,0,0,2.714,0l15.582-27.538A19.587,19.587,0,0,0,754.6,18.49ZM740,41.623a9.866,9.866,0,1,1,9.866-9.866A9.866,9.866,0,0,1,740,41.623Z" transform="translate(-720.456 -12.045)" fill="#0aa67a"/></svg>