<svg xmlns="http://www.w3.org/2000/svg" width="53.921" height="56.114" viewBox="0 0 53.921 56.114"><ellipse cx="12.943" cy="1.618" rx="12.943" ry="1.618" transform="translate(13.446 52.878)" fill="#d2d1d1"/><path d="M377.581,23.193a19.451,19.451,0,0,0-1.147-1.816c-5.3-7.458-17.88-10.607-23.516-3.308-7.608-6.883-18.213-4.151-23.516,3.308a19.457,19.457,0,0,0-1.147,1.816,18.91,18.91,0,0,0,2.83,21.939L351.8,67.582a1.537,1.537,0,0,0,2.237,0l20.715-22.45A18.91,18.91,0,0,0,377.581,23.193Z" transform="translate(-325.958 -13.932)" fill="#f1937b"/></svg>