<svg xmlns="http://www.w3.org/2000/svg" xmlns:xlink="http://www.w3.org/1999/xlink" width="62.362" height="76.557" viewBox="0 0 62.362 76.557"><defs><clipPath id="a"><path d="M1000.917,29.287c8.384,0,15.2-1.727,16.917-4.1V26.31c-1.153,2.017-7.778,4.034-16.917,4.034S985.153,28.327,984,26.31V25.184C985.72,27.56,992.533,29.287,1000.917,29.287Zm-15.634-3.464c2.567,1.764,8.691,3.041,15.634,3.041s13.067-1.277,15.635-3.041a.207.207,0,0,1-.049-.131A2.282,2.282,0,0,0,1015.488,24H986.346a2.282,2.282,0,0,0-1.015,1.692A.207.207,0,0,1,985.283,25.822Zm15.634,51.044c-7.9,0-14.462-1.95-16.91-4.741.152,3.328,7.662,6.01,16.91,6.01s16.758-2.681,16.91-6.01C1015.379,74.916,1008.822,76.866,1000.917,76.866Zm0-.846c8.456,0,15.711-2.419,16.917-5.455V27.624c-2.636,2.328-9.949,3.566-16.917,3.566S986.636,29.952,984,27.624V70.566C985.207,73.6,992.462,76.02,1000.917,76.02Zm-16-50.472a2.5,2.5,0,0,1,.8-1.549H984v.022A2.118,2.118,0,0,0,984.919,25.549Zm32,0a2.118,2.118,0,0,0,.919-1.527V24h-1.721A2.5,2.5,0,0,1,1016.915,25.549Z" transform="translate(-984 -24)" fill="none"/></clipPath></defs><g transform="matrix(0.883, 0.469, -0.469, 0.883, -831.016, -472.555)"><ellipse cx="13.154" cy="1.644" rx="13.154" ry="1.644" transform="translate(993.421 77.622) rotate(-28)" fill="#d2d1d1"/><g transform="translate(984 17.075)"><g clip-path="url(#a)"><path d="M1017.834,24H984V71.15h.175a2.36,2.36,0,0,0-.175.873c0,3.376,7.574,6.112,16.917,6.112s16.917-2.736,16.917-6.112a2.362,2.362,0,0,0-.175-.873h.175Z" transform="translate(-984 -24)" fill="#0aa67a"/><path d="M1040,81.628l6.767-1.746V24H1040Z" transform="translate(-1016.316 -24)" fill="#23c295"/><path d="M976,81.628l6.767-1.746V24H976Z" transform="translate(-979.383 -24)" fill="#23c295"/><rect width="1.692" height="55.881" transform="translate(18.609 1.746)" fill="#23c295"/></g></g><g transform="translate(984 12)"><path d="M1002.667,16.5c-8.448,0-15.585,2.227-15.585,4.864a.207.207,0,0,1-.049.131c2.567,1.764,8.691,3.041,15.634,3.041s13.067-1.277,15.634-3.041a.207.207,0,0,1-.049-.131C1018.253,18.727,1011.115,16.5,1002.667,16.5Z" transform="translate(-985.75 -14.597)" fill="#0d936d"/><path d="M984.919,18.624c.222-2.9,7.167-5.144,16-5.144s15.775,2.248,16,5.144a2.306,2.306,0,0,0,.9-1.324,1.539,1.539,0,0,0,.019-.225c0-2.8-7.574-5.075-16.917-5.075S984,14.272,984,17.075a1.522,1.522,0,0,0,.019.225A2.306,2.306,0,0,0,984.919,18.624Z" transform="translate(-984 -12)" fill="#098663"/></g><path d="M1017.32,19.639l1.027,1.027h3.383l1.005-1.005a.627.627,0,0,0-.253-1.043,8.136,8.136,0,0,0-4.918-.021A.631.631,0,0,0,1017.32,19.639Z" transform="translate(-19.122 -3.591)" fill="#fff"/><path d="M1017.636,24h1.864a1.834,1.834,0,0,1,1.3.537l1.524,1.524a.775.775,0,0,1-.548,1.323h-6.41a.775.775,0,0,1-.548-1.323l1.524-1.524A1.834,1.834,0,0,1,1017.636,24Z" transform="translate(-17.651 -6.925)" fill="none" stroke="#fff" stroke-miterlimit="10" stroke-width="1"/></g></svg>