<svg xmlns="http://www.w3.org/2000/svg" width="33.65" height="60" viewBox="0 0 33.65 60"><ellipse cx="13" cy="2" rx="13" ry="2" transform="translate(0 56)" fill="#d2d1d1"/><ellipse cx="5" cy="4.5" rx="5" ry="4.5" transform="translate(7 44)" fill="#0aa67a"/><path d="M883.313,30.429A18.3,18.3,0,0,0,852.133,17.3a4.487,4.487,0,0,0,1.211,7.172l.2.1a4.471,4.471,0,0,0,5.113-.848,9.152,9.152,0,1,1,6.356,15.735h-.14a7.487,7.487,0,0,0-7.487,7.487h0v1.665a4.576,4.576,0,0,0,4.576,4.576h0a4.576,4.576,0,0,0,4.576-4.576v-.068A18.3,18.3,0,0,0,883.313,30.429Z" transform="translate(-849.664 -12)" fill="#0aa67a"/></svg>