<svg xmlns="http://www.w3.org/2000/svg" width="219.962" height="49.452" viewBox="0 0 219.962 49.452"><path d="M376.04,206.328q0,8.253-4.869,12.751t-13.826,4.5h-3.737v14.177a2.163,2.163,0,0,1-2.162,2.161H342.46a2.163,2.163,0,0,1-2.161-2.161v-45.14a1.95,1.95,0,0,1,1.949-1.949h15.1q9.33,0,14.016,4.076T376.04,206.328Zm-22.432,6.4h2.426a6.637,6.637,0,0,0,4.766-1.684,6.113,6.113,0,0,0,1.765-4.651q0-4.984-5.525-4.984h-3.432Z" transform="translate(-340.299 -190.461)" fill="#1f2d40"/><path d="M399.71,239.913H386.223a2.461,2.461,0,0,1-2.185-1.334l-17.3-33.366h-.3q.638,8.192.638,12.5v20.575a1.624,1.624,0,0,1-1.621,1.627h-8.543a1.624,1.624,0,0,1-1.621-1.627V193.628a2.966,2.966,0,0,1,2.966-2.966h12.619a2.967,2.967,0,0,1,2.627,1.592l17.086,32.631h.2q-.466-7.442-.471-11.958V192.7a2.041,2.041,0,0,1,2.041-2.041h7.778a2.041,2.041,0,0,1,2.041,2.041v44.744A2.466,2.466,0,0,1,399.71,239.913Z" transform="translate(-269.118 -190.461)" fill="#1f2d40"/><path d="M387.971,239.913H377.939a1.641,1.641,0,0,1-1.638-1.638v-36.73H365.912a1.641,1.641,0,0,1-1.638-1.638V192.3a1.641,1.641,0,0,1,1.638-1.638h34.045A1.638,1.638,0,0,1,401.6,192.3v7.606a1.638,1.638,0,0,1-1.638,1.638H389.609v36.73A1.641,1.641,0,0,1,387.971,239.913Z" transform="translate(-226.445 -190.461)" fill="#1f2d40"/><path d="M411.968,237.36l-12.642-18.908q8.348-4.683,8.353-13.24,0-14.548-20.075-14.55H371.467v47.612a1.641,1.641,0,0,0,1.638,1.638h10.026a1.638,1.638,0,0,0,1.638-1.638V221.987h3.369l9.969,17.109a1.639,1.639,0,0,0,1.42.816h11.078A1.64,1.64,0,0,0,411.968,237.36Zm-19.9-26.318a6.627,6.627,0,0,1-4.766,1.684h-2.426V201.407h3.438q5.527,0,5.525,4.984A6.117,6.117,0,0,1,392.071,211.042Z" transform="translate(-192.286 -190.461)" fill="#1f2d40"/><path d="M370.495,206.948c-2.794,0-4.237-.661-4.237-.943s1.443-.943,4.237-.943,4.237.661,4.237.943S373.288,206.948,370.495,206.948Zm22.783,33.131h-10.7a2.055,2.055,0,0,1-1.989-1.535l-2.024-7.7h-16l-2.006,7.427a2.441,2.441,0,0,1-2.351,1.805H347.694a1.636,1.636,0,0,1-1.552-2.139l14.8-45.554a2.538,2.538,0,0,1,2.42-1.759h14.183a2.381,2.381,0,0,1,2.259,1.633l15.022,45.669A1.636,1.636,0,0,1,393.277,240.079ZM365.683,219.2c0,1.041,2.495,1.512,4.812,1.512s4.812-.471,4.812-1.512V206.005c0-1.041-2.495-1.518-4.812-1.518s-4.812.477-4.812,1.518Zm11.986,2.443a.43.43,0,0,0-.575-.207,17.084,17.084,0,0,1-6.594,1.081,16.26,16.26,0,0,1-6.824-1.2.432.432,0,1,0-.4.765,16.9,16.9,0,0,0,7.226,1.3,17.942,17.942,0,0,0,6.962-1.167A.428.428,0,0,0,377.669,221.642Z" transform="translate(-312.931 -190.627)" fill="#1f2d40"/></svg>